<?xml version="1.0" encoding="UTF-8"?>
<svg id="Capa_1" xmlns="http://www.w3.org/2000/svg" version="1.1" viewBox="0 0 180 227">
  <!-- Generator: Adobe Illustrator 29.4.0, SVG Export Plug-In . SVG Version: 2.1.0 Build 152)  -->
  <defs>
    <style>
      .st0 {
        fill: #fff;
      }
    </style>
  </defs>
  <path class="st0" d="M109.46,39.5c3.96,0,7.94.21,11.89.39,2.58.11,5.15.47,7.57.74l-.18,23.83h-1.89c-2.62,0-5.23-.03-7.85-.03-1.96,0-3.92.02-5.89.09-6.31.21-10.96,2.58-11.28,10.47-.2,5.68-.35,18.22-.35,18.89.33,0,6.57.02,12.85.02,3.14,0,6.21,0,8.35-.02h5.1c-1.28,9.15-2.45,17.94-3.73,26.78h-22.57l-.51,66.86h-27.72l.51-66.97h-22.67l.2-26.62h22.78l.02-2c.04-5.37-.02-10.73.18-16.1.08-3.37.26-6.84.87-10.21,1.54-8.15,5.32-14.99,12.15-19.88,5.98-4.26,12.78-6.05,19.98-6.21.74-.02,1.47-.02,2.21-.02Z"/>
</svg>