<?xml version="1.0" encoding="UTF-8"?>
<svg id="Capa_1" xmlns="http://www.w3.org/2000/svg" version="1.1" viewBox="0 0 180 227">
  <!-- Generator: Adobe Illustrator 29.4.0, SVG Export Plug-In . SVG Version: 2.1.0 Build 152)  -->
  <defs>
    <style>
      .st0 {
        fill: #fff;
      }
    </style>
  </defs>
  <path class="st0" d="M126.82,67.54s.07,0,.1,0c4.43,0,8.03,3.62,8,8.11-.03,4.43-3.68,8.06-8.17,8.06-4.49-.05-8.03-3.68-8-8.11.03-4.46,3.63-8.06,8.07-8.06Z"/>
  <path class="st0" d="M157.17,77.92c1,10.6,1.65,60.68-1.47,72.41-4.17,15.36-14.19,24.44-29.73,26.93-5.81.94-21.49,1.5-37.15,1.5s-32.04-.59-37.42-1.99c-15.27-3.95-24.39-13.9-26.82-29.37-1.81-11.36-2-64.14,1.28-75.6,4.28-14.93,14.24-23.69,29.35-26.18,6.85-1.12,20.23-1.52,33.75-1.52,12.57,0,25.25.34,32.88.76,9.24.49,17.71,3.46,24.58,10.06,6.55,6.27,9.9,14.12,10.75,22.98ZM144.22,145.2c1.93-11.84,1.93-55.05.83-66.14-1.21-11.84-8.45-19.63-20.17-21.47-5.8-.88-19.77-1.27-33.67-1.27s-26.76.36-32.63,1c-11.75,1.35-19.64,8.6-21.52,20.28-1.93,12.38-1.91,58.68-.46,67.98,1.49,9.68,6.96,16.33,16.62,19.04,5.23,1.46,20.88,1.99,36.22,1.99,14.13,0,28-.45,33.21-1.02,11.85-1.3,19.7-8.6,21.57-20.39"/>
  <path class="st0" d="M90.93,76.95c19.04,0,34.39,15.47,34.24,34.56-.14,19.04-15.73,34.5-34.82,34.5s-34.39-15.47-34.24-34.56c.15-19.09,15.73-34.56,34.82-34.5ZM90.43,133.79c12.24,0,22.32-9.86,22.52-22.12.2-12.38-9.62-22.44-21.95-22.55-.07,0-.13,0-.2,0-12.24,0-22.32,9.86-22.52,22.12-.2,12.33,9.62,22.44,21.95,22.55.07,0,.13,0,.2,0"/>
</svg>