<?xml version="1.0" encoding="UTF-8"?>
<!DOCTYPE svg PUBLIC "-//W3C//DTD SVG 1.1//EN" "http://www.w3.org/Graphics/SVG/1.1/DTD/svg11.dtd">
<!-- Creator: CorelDRAW 2020 (64-Bit) -->
<svg xmlns="http://www.w3.org/2000/svg" xml:space="preserve" width="1087px" height="961px" version="1.1" style="shape-rendering:geometricPrecision; text-rendering:geometricPrecision; image-rendering:optimizeQuality; fill-rule:evenodd; clip-rule:evenodd"
viewBox="0 0 2161.23 1911.19"
 xmlns:xlink="http://www.w3.org/1999/xlink"
 xmlns:xodm="http://www.corel.com/coreldraw/odm/2003">
 <defs>
  <style type="text/css">
   <![CDATA[
    .fil0 {fill:#634B49;fill-rule:nonzero}
   ]]>
  </style>
 </defs>
 <g id="Capa_x0020_1">
  <metadata id="CorelCorpID_0Corel-Layer"/>
  <path class="fil0" d="M1038.38 717.8c0,6.91 -2.27,17.17 -6.81,30.8 -4.54,13.63 -10.45,29.35 -17.72,47.16 -7.27,17.81 -15.54,37.26 -24.81,58.34 -9.27,21.08 -18.72,42.53 -28.35,64.33 -9.63,21.81 -19.17,43.35 -28.62,64.61 -9.45,21.26 -17.72,41.16 -24.81,59.7 -7.09,18.53 -12.81,34.98 -17.17,49.34 -4.36,14.36 -6.54,25.53 -6.54,33.53 1.81,3.27 -0.19,6.91 -6,10.91 -5.82,3.99 -13.99,5.99 -24.54,5.99 -3.63,0 -8.45,-0.72 -14.45,-2.18 -5.99,-1.45 -11.99,-4.09 -17.98,-7.91 -6.01,-3.81 -11.55,-9.17 -16.64,-16.08 -5.08,-6.9 -8.35,-15.81 -9.81,-26.71 -0.72,-5.09 -0.91,-13.63 -0.54,-25.63 0.36,-11.99 1,-26.44 1.91,-43.34 0.9,-16.9 1.99,-35.62 3.27,-56.16 1.27,-20.53 2.36,-41.98 3.27,-64.33 0.91,-22.35 1.63,-45.25 2.18,-68.7 0.54,-23.44 0.63,-46.25 0.27,-68.42 -6.9,19.63 -15.36,42.44 -25.35,68.42 -10,25.99 -21.36,52.8 -34.08,80.42 -12.72,27.62 -26.35,54.79 -40.89,81.51 -14.53,26.72 -29.8,50.61 -45.79,71.69 -16,21.08 -32.26,38.08 -48.8,50.98 -16.54,12.9 -33.16,19.35 -49.89,19.35 -12.35,0 -22.98,-1.27 -31.89,-3.81 -8.91,-2.55 -16.17,-5.64 -21.81,-9.27 -5.63,-3.64 -9.9,-7.36 -12.81,-11.18 -2.91,-3.81 -4.54,-7 -4.91,-9.54 -0.36,-2.54 0.19,-4 1.64,-4.36 1.45,-0.36 3.36,-0.27 5.73,0.27 2.36,0.55 5.17,1.27 8.44,2.18 3.28,0.91 6.73,1.37 10.36,1.37 15.63,0 31.26,-5.18 46.89,-15.54 15.63,-10.36 30.89,-24.17 45.8,-41.44 14.9,-17.26 29.44,-37.25 43.61,-59.97 14.18,-22.72 27.63,-46.25 40.35,-70.6 12.72,-24.35 24.71,-48.89 35.98,-73.61 11.27,-24.71 21.45,-47.79 30.53,-69.24 9.09,-21.44 17.09,-40.52 23.99,-57.24 6.91,-16.72 12.54,-29.26 16.9,-37.62l0 -4.36c-1.09,-6.54 2.91,-8.54 12,-6 0.72,0.36 1.27,0.55 1.64,0.55 0.36,0 0.72,0.18 1.08,0.54 5.82,2.18 12.63,5.54 20.45,10.09 7.81,4.54 15.27,9.63 22.35,15.26 7.09,5.63 13.09,11.27 17.99,16.9 4.91,5.64 7.73,10.45 8.45,14.45 0.37,4.37 -0.18,14.81 -1.63,31.35 -1.46,16.54 -3.09,36.62 -4.91,60.24 -1.81,23.63 -3.27,49.44 -4.36,77.42 -1.09,27.99 -1.09,55.25 0,81.78 6.54,-13.44 13.99,-28.89 22.35,-46.34 8.36,-17.44 16.81,-35.71 25.36,-54.79 8.54,-19.08 16.9,-38.44 25.07,-58.07 8.18,-19.62 15.45,-38.43 21.81,-56.42 6.36,-17.99 11.45,-34.35 15.27,-49.07 3.82,-14.72 5.72,-26.99 5.72,-36.8 0,-6.54 2.64,-9.27 7.91,-8.18 5.27,1.09 11.18,4.27 17.72,9.54 6.54,5.27 12.45,12 17.72,20.17 5.27,8.18 7.9,16.09 7.9,23.72zm-64 930.54l4.02 0.57 -2.88 1.89c0.23,0.64 0.62,1.45 0.79,1.82 0.39,0.83 0.7,1.71 1.07,2.56 0.38,0.89 0.57,1.86 0.91,2.75 0.34,0.88 0.45,1.89 0.82,2.77l0.25 0.63 -0.24 0.63c-9.37,23.99 18.95,55.12 -15.36,69.41l-1.97 0.82 -0.35 -2.1c-3.2,-19.38 12.04,-13.03 6.28,-33.61 -1.2,-4.31 -2.7,-8.72 -4.87,-12.64 -1.13,-2.04 -2.63,-3.95 -3.66,-5.99 -2.45,-4.87 -1.21,-12.3 -0.46,-17.45l0.05 -0.33 9.62 -16.22 1.52 1.28c0.78,0.65 2.89,2.47 4.02,3.09 0.16,0.01 0.3,0.06 0.44,0.12zm-185.11 158.34c19.37,16.26 36.49,21.85 32.91,51.81 -2.1,17.49 -17.4,49.87 -36.76,52.46 -12.38,1.65 -22.92,-5.81 -35.14,-7.06 -5.48,-0.56 -10.48,-1 -15.38,1.78 -3.95,2.24 -6.49,2.95 -11.12,3.19 -24.75,1.25 -26.28,-26.37 -41.63,-38.25 -4.53,0.04 -9.02,0.45 -13.38,1.73 -2.28,0.67 -5.01,1.9 -7.34,2.06 -3.3,0.23 -6.28,-1.67 -8.86,-3.51 -5.87,-4.2 -11.71,-9.63 -17.11,-14.43 -4.41,-3.92 -9.01,-6.59 -14.51,-8.68 -4.36,-1.66 -8.98,-2.82 -13.21,-4.81 -4.58,-2.15 -8.02,-5.05 -10.9,-9.22 -5.33,-7.71 -4.81,-2.21 -3.28,-10.99 -15.06,-13.86 2.24,-22.83 -8.46,-37 -2.11,-2.16 -4.11,-4.14 -7.25,-4.01 -5.9,0.26 -9.22,-3.06 -13.16,-7.16 -1.94,-2.01 -5.06,-4.98 -4.93,-8.04 0.12,-2.96 -7.65,-10.37 -9.45,-12.2 -5.25,-5.33 -11.96,-12.38 -11.66,-20.44 0.14,-3.66 1.2,-7.23 1.57,-11.02 -24.67,-0.52 -44.33,-0.26 -68.22,8.69 -42.92,16.07 -86.37,21.43 -130.54,7.28 -14.81,-4.74 -28.49,-11.28 -42.16,-18.62 -10.03,-5.39 -20.81,-11.9 -31.45,-15.88 -21.11,-7.88 -43.13,-12.67 -64.88,-18.39 -31.43,-8.27 -62.18,-20.46 -87.29,-41.57 -17.32,-14.55 -28.68,-30.87 -42.85,-48 -20.45,-24.72 -40.04,-37.9 -71.22,-46.77l-1.61 -0.46 0.44 -1.61c6.34,-23.28 27.15,-33.48 40.57,-51.55 6.92,-9.3 11.36,-18.81 14.32,-29.99 2.28,-8.6 3.59,-17.48 5.11,-26.23 1.85,-10.64 4.03,-20.97 7.25,-31.29 10.3,-33.03 29.86,-62.87 51.25,-89.72 14.13,-17.74 35.62,-34.68 53.87,-48.08 13.55,-9.93 27.54,-19.37 41.79,-28.26 48.97,-30.56 110.39,-49.88 166.86,-60.45 71.14,-13.32 178.69,-19.33 244.45,16.1 18.92,10.18 35.59,23.06 54.97,32.75 16.95,8.47 38.7,18.95 51.33,33.28 32.4,36.8 24.51,75.04 40.31,117.22 8.58,-0.86 16.04,0.62 22.98,6.16 6.95,5.56 11.62,13.24 18.84,18.74 10.9,-1.84 12.59,-5.63 22.08,-10.44l0.64 -0.33 0.67 0.23c11.74,4 21.74,9.76 29.49,19.58 4.35,5.49 8,13.33 12.81,17.97 2.05,1.98 4.33,3.36 7.03,4.26 4.72,1.58 8.68,1.68 13.5,0.61 6.75,-1.51 11.44,-3.51 18.69,-3.37 11.46,0.22 23.42,5.78 33.2,11.3l0.59 0.33 0.2 0.65c2.97,9.8 0.26,21.11 8.27,28.71 0.63,0.6 3.93,3.68 4.86,3.74 3.63,-0.86 5.28,1.64 7.7,4.26 5.43,5.88 10.34,19.61 12.42,27.2 3.87,14.15 5.24,29.84 1.66,44.18 -0.88,8.23 -0.66,14.9 0.82,22.86l26.94 11.89 -0.2 1.29c-0.79,5.01 -1.83,10.25 -3.61,15.02 -0.52,1.4 -1.81,3.87 -2.04,5.23 -0.45,2.58 5.31,14.82 6.34,17.26 11.11,26.24 -6.74,15.87 -5.72,32.81 1.96,6.32 1.89,6.76 5.65,12.77 3.61,5.78 5.24,7.14 9.78,12.07l0.37 0.4 0.06 0.55c0.24,2.06 0.64,4.09 1.12,6.11 1.58,6.69 3.55,12.58 4.17,19.55 0.91,10.35 -1.1,20.57 -4.22,30.4 -3.86,12.12 -10.59,28 -23.73,32.51 -3.84,1.31 -7.64,1.51 -11.65,1.35 -2.56,-0.11 -6.02,-0.54 -8.49,-0.05 -23.5,4.61 -8.73,22.61 -50.26,20.26 -28.89,-1.63 -32.73,-9.5 -49.15,-30.12 -4.16,-5.22 -8.73,-9.61 -14.45,-13.09 -3.9,-2.38 -8.17,-4.1 -12.01,-6.52 -8.4,-5.29 -11.75,-13.61 -14.25,-22.87 -2.67,-9.85 -3.34,-17.19 -4.52,-27.03 -1,-8.3 -3.85,-15.08 -7.54,-22.54 -9.35,-18.87 -20.91,-33.2 -8.04,-54.81 13.31,-22.37 25.93,-21.9 49.27,-15.5l0.08 0.02 0.09 0.04c10.67,4.17 18.39,8.05 24.83,17.67 5.68,8.48 9.86,12.06 18.65,16.68l13.72 -30.61 12.64 5.05 -10.2 28.25c0.82,11.01 4.72,14.92 9.79,23.9 7.3,12.91 3.3,25.71 -2.1,38.62l-0.94 2.26 -1.78 -1.69c-2.36,-2.25 -4.41,-4.69 -6.02,-7.54 -4.82,-8.55 -6.61,-26.02 -8.38,-36.32 -4.74,-1.79 -9.69,-3.53 -14.61,-4.66 -1.77,-0.41 -4.27,-0.69 -5.89,-1.35 -3.17,-1.29 -13.87,-12.82 -16.45,-15.33 -11.12,-10.81 -20.88,-8.62 -33.24,-3.04 -4.29,7.04 -10.53,17.63 -7.07,26 1.17,2.84 3.12,5.55 4.61,8.26 2.24,4.06 3.65,8.05 4.36,12.65 0.92,5.89 0.72,11.34 -0.08,17.21 -0.58,4.31 -1.53,8.84 -1.44,13.19 0.1,5.08 1.73,9.17 4.71,13.27 4.15,5.69 10.33,10.21 15.87,14.48 7.07,5.44 13.59,10.78 19.17,17.83 10.86,13.71 16.94,21.65 35.91,22.45 22.49,0.94 20.54,-9.06 37.2,-20.09 0.44,-0.29 2.28,-0.84 2.83,-1.04 2.06,-0.77 4.09,-1.64 6.06,-2.6 6.16,-3 12,-6.92 16.9,-11.71 16.51,-16.12 17.57,-37.01 10.52,-58.06 -1.29,-3.84 -2.62,-7.54 -4.51,-11.12 -1.45,-2.73 -2.9,-5.36 -4.24,-8.15 -2.04,-4.25 -3.24,-7.57 -4.51,-12.03 -0.85,-2.96 -2.13,-5.38 -3.7,-8.03l-0.25 -0.41 0.01 -0.49c0.14,-7.15 1.27,-13.67 2.97,-20.59 1.18,-4.77 2.72,-9.9 2.89,-14.82 0.2,-5.67 -1.54,-10.39 -4.54,-15.15l-0.19 -0.3 -0.05 -0.34c-0.31,-2.03 -0.99,-3.82 -2.29,-5.42 -1.97,-2.42 -5.23,-4.16 -7.92,-5.63 -4.32,-2.37 -8.35,-4.61 -12.27,-7.65l-0.61 -0.47 -0.04 -0.77c-0.37,-6.97 0.75,-12.97 3.23,-19.45 1.51,-3.94 3.92,-8.59 4.42,-12.75 0.34,-2.82 -0.21,-5.32 -1.45,-7.87l-0.27 -0.56 0.16 -0.61c0.49,-1.83 2.51,-8.61 1.33,-10.42 -0.66,-1.02 -1.9,-2.07 -2.71,-3.21 -1.88,-2.66 -3.01,-6.02 -3.82,-9.15 -0.79,-3.09 -1.37,-6.36 -1.15,-9.57 0.11,-1.62 0.56,-3.18 0.66,-4.73 0.14,-2.42 -2.08,-5.48 -3.82,-7.66 -10.36,8.26 -8.71,14.52 -25.11,15.24l-2.37 0.11 0.68 -2.28c1.48,-4.91 3.28,-9.58 5.03,-14.38 1.11,-3.04 2.27,-6.35 2.43,-9.61 0.28,-5.55 -2.63,-10.81 -5.55,-15.35 -22.74,-19.23 -32.98,-1.83 -57.04,-7.88 -23.1,-5.8 -23.58,-26.21 -39.06,-39.85 -17.64,-0.98 -25.58,11.7 -43.76,-2.76 -2.55,-2.03 -4.43,-3.93 -6.1,-6.74 -2.34,-3.95 -3.74,-6.25 -7.03,-9.67l-3.64 -3.06c0.91,2 1.83,4.01 2.74,6.01l1.09 2.39 -2.62 0c-3.06,0 -6.07,-0.2 -9.02,0.78 -1.2,0.4 -2.45,0.79 -3.65,1.25 6.27,5.48 11.97,11.63 17.09,18.18l0.72 0.92 -17.7 29.06c0.14,9.38 -5.58,2.79 3.77,14.08 3.88,4.69 5.42,4.18 11.12,4.31 9.65,0.22 13.62,-5.86 21.89,-8.89 8.13,-2.98 17.8,-4.6 24.97,1.48 7.45,6.32 9.54,18.85 11.71,28.03 2.28,6.01 2.12,5.99 6.26,11.51 2.82,3.75 6.38,6.87 9.2,10.65 5.48,7.37 7.24,14.63 10.47,22.93l0.16 0.4 -0.06 0.44c-3.27,24.22 -9.64,51.13 -35.4,59.86 -11.24,3.81 -23.26,4.16 -34.27,8.97 -13.79,6.03 -18.03,9.03 -32.65,-0.06l-1.59 -0.99 1.15 -1.48c12.72,-16.32 31.86,-9.19 46.5,-19.01l9.81 -6.4c16.77,-11.5 29.14,-27.79 12.39,-45.85l-0.08 -0.08 -12.92 -18.46 3.38 -17.93c-2.12,-1.21 -6.03,-3.51 -7.4,-4.04 -2.07,1.15 -2.77,1.56 -5.42,2.14l-0.17 0.04 -0.18 0c-1.6,0.02 -3.12,-0.14 -4.3,-0.96 -1.01,1.33 -2.07,2.9 -3.03,4.11l-0.27 0.33 -0.4 0.17c-6.39,2.67 -9.5,4.71 -16.62,5.83l-0.1 0.02 -15.63 0.53 -0.28 -0.09c-5.93,-1.93 -13.82,-4.46 -17.33,-10.05 -1.09,-1.75 -1.89,-3.73 -2.83,-5.57 -1.39,-2.72 -3.03,-5.13 -4.98,-7.48l-0.24 -0.29 -0.1 -0.36c-3.4,-13 -4.97,-18.76 3.91,-30.56l0.32 -0.41 6.82 -2.35 8.05 -20.37c-8.76,-11.07 -15.76,-24.81 -31.24,-27.64 -2.3,-0.43 -7.93,-1.33 -9.59,1.05 -1.91,2.73 0.85,12.08 1.46,15.31 0.51,2.72 0.89,5.55 0.72,8.32l-0.12 1.92 -1.89 -0.37c-7.25,-1.4 -13.26,-4.28 -19.7,-7.73 -4.18,-2.24 -9.41,-5.3 -14.22,-5.64 -6.87,-0.48 -12.51,4.79 -16.71,9.62 -3.19,9.89 -1.55,8.76 2.87,17.04l8.48 15.94 2.23 -1.61 0.58 2.47c2.65,11.27 2.65,11.1 0.97,23 -0.88,6.27 -1.94,12.51 -0.88,18.8 10.71,6.52 8.73,6.6 21.44,7.81 29.44,-3.91 38.08,-7.16 49.8,24.5l0.09 0.24 0.01 0.25c0.63,11.71 -3.34,18.89 -11.12,27.34l-0.66 0.71 -0.94 -0.2c-14.1,-3.03 -27.89,-7.62 -42.03,-10.75 -13.35,17.7 -1.63,29.48 -24.33,48.18 -15.63,12.87 -25.1,6.92 -42.71,8.88 -9.22,19.83 -16.33,60.9 14.09,64.97 35.74,4.77 38.22,-31.14 68.14,-34.12l0.77 -0.08 0.56 0.54c14.16,13.56 6.48,16.51 14.56,30.38 8.51,14.6 16.81,10.55 19.93,29.97l0.42 2.6 -2.54 -0.7c-10.93,-3.02 -22.88,-6.94 -28.6,-17.53 -4.12,-7.63 -5.03,-12.68 -10.86,-19.63 -8.15,3.3 -16.01,8.99 -23.25,13.84 -9.12,6.11 -19.5,12.78 -30.61,14.15 -15,1.85 -26.83,-6.58 -36.32,-17.32l-0.22 -0.25 -0.11 -0.31c-7.4,-20.94 -14.9,-79.46 13.79,-87.92 11.21,-3.3 31.9,1.89 39.31,-9.97 10.53,-16.88 -9.23,-24.1 21.49,-38.74l0.49 -0.23 29.18 5.15c0.95,0.09 6.83,0.69 7.66,0.09 0.77,-0.54 1.23,-0.86 1.95,-1.14l5.03 -13.72c-11.94,-5.29 -18.42,-6.49 -31.48,-4.58 -11.15,1.64 -18.65,-0.87 -28.62,-6.06l-0.37 -0.2 -0.24 -0.35c-4.6,-6.79 -8.3,-14.14 -8.11,-22.27 -6.72,4.6 -14.1,8.57 -21.61,11.63 6.89,7.51 18.19,10.43 22.22,20.94 3.77,9.82 -1.81,24.56 -12.75,27.05 -9.49,2.17 -17.05,-4.11 -26.56,-3.98 -1.16,2.17 -3.47,6.65 -2.87,8.18 0.41,1.05 1.51,2.39 2.07,3.61 1.39,3.02 1.83,6.66 1.98,9.95l0.17 3.75 -2.92 -2.36c-14.46,-11.7 -27.6,-21.77 -15.49,-41.16l0.4 -0.64 0.75 -0.13c7.96,-1.36 10.63,-0.4 17.91,1.56 4.27,1.16 7.75,0.36 11.68,-1.21 0.24,-3.26 0.1,-6.8 -2.1,-9.38 -1.62,-1.9 -4.27,-3.59 -6.18,-5.27 -3.56,-3.13 -6.1,-6.7 -8.21,-10.93 -5.41,-10.91 -3.69,-19.89 -6.04,-30.79 -0.9,-1.88 -0.95,-3.26 -0.07,-4.44 -2.38,-1.01 -6.2,-2.28 -7.55,-2.79 -2.94,-1.11 -7.22,-0.26 -10.26,0.24 -11.43,1.87 -11.66,2.05 -19.73,10.01 -12.86,13.32 -12.33,23.42 -15.97,39.74 17.95,17.26 33.93,35.28 22.94,61.22l-0.3 0.71 -0.73 0.24c-1.13,0.37 -1.63,-0.05 -2.4,-0.08l-0.29 0.33 -14.78 2.28c-0.84,0.23 -1.67,0.64 -2.51,0.89 -0.24,0.07 -0.52,0.15 -0.81,0.24 6,11.99 14.78,17.6 3.78,31.58l-0.73 0.92 -1.12 -0.36c-19.41,-6.28 -10.83,-22.22 -18.8,-34.42 -0.65,-1 -4.14,-6.34 -5.48,-7.23 -1.32,0.96 -1.38,2.32 -4.08,3.07 -1.12,0.41 -2.24,0.31 -3.4,0.34 -0.43,0.01 -0.93,0.03 -1.33,0.18 -4.12,1.49 2.25,23.22 2.91,25.53 4.84,16.94 7.31,22.59 -2.68,39.08 -28,46.21 0.47,29.75 12.3,64.73l0.05 0.14 0.02 0.16c0.67,4.76 0.31,9.87 -0.18,14.65l0 3.44 -0.4 -0.01c-0.76,6.25 -1.75,12.58 -1.92,18.86 4.27,4.27 8.94,8.44 13.43,12.46 3.69,3.31 11.15,10.4 15.29,12.7 13.76,7.64 25.69,5.89 37.9,17.37l0.86 0.81 -0.47 1.09c-6.46,14.88 -5.51,11.41 -18.59,15.51l-1.39 19.44c3.63,2.76 11.19,8.69 15,9.27 1.71,0.26 3.77,0.16 5.53,0.26 4.05,0.23 8.08,0.93 12.04,1.79 5.02,1.09 11.09,2.82 15.14,6.15 2.56,2.1 3.44,4.02 5.11,6.69 2.3,3.68 5.58,4.7 9.71,5.5 7.6,1.47 9.94,-2.23 16.25,-3.74 7.5,-1.79 13.95,4.63 18.53,9.67 11.12,12.22 0.57,13.88 19.92,24.28 4.51,0.22 7.94,0.23 12.23,-1.31 6.7,-2.4 15.29,-1.08 22.16,-0.18 12.37,1.63 28.46,0.34 33.75,-13.1 6.45,-16.39 -7.59,-39.15 -26.09,-37.38 -5.81,0.56 -9,2.38 -14.25,4.08 -7.73,2.51 -14.67,0.24 -21.88,-2.9 -13.93,-6.08 -20.08,-11.46 -17.93,-27.24l0.17 -1.26 1.25 -0.18c18.6,-2.74 23.33,18.12 44.93,13.7 13.06,-2.67 23.09,-17.97 23.98,-30.82 -1.31,-5.23 -3.01,-10.2 -7.26,-13.77 -2.13,-1.8 -4.66,-3.29 -6.93,-4.93 -3.59,-2.6 -6.67,-5.49 -9.56,-8.84 -5.02,-5.82 -7.92,-11.83 -10.4,-19.01 -1.26,-3.65 -2.83,-9.55 -5.67,-12.24 -6.46,-6.13 -25.73,1.01 -32.51,3.37 -6.77,2.35 -13.28,4.08 -19.78,0.24 -6.5,-3.84 -8.83,-4.68 -16.59,-3.6 -11.52,12.38 -2.58,21.1 5.58,32.15 4.6,6.21 15.32,19.17 13.62,27.46 -0.92,4.51 -4.84,7.9 -8.36,10.51l-1.47 1.09 -0.97 -1.54c-4.62,-7.29 -2.27,-3.94 -3.96,-10.91 -2.45,-10.12 -6.27,-20.24 -13.43,-27.99 -3.26,-3.54 -9.38,-7.69 -11.53,-11.59 -2.37,-4.3 -1.22,-9.33 0.27,-13.72 7.18,-21.17 43.75,-23.45 62.28,-25.92 14.7,-1.97 23.66,-0.59 35.27,9.52 52.16,45.39 51.91,15.8 47.99,91.79zm-153.08 12.58c-2.26,-16.19 3.77,-9.72 6.62,-20.55 0.75,-2.85 1.33,-5.59 0.61,-8.5 -1.38,-5.6 -2.2,-7.96 -2.17,-14.13l0.01 -3.14 2.61 1.75c7.24,4.83 13.28,11.87 15.83,20.29 1.98,6.52 1.8,14.11 -2.54,19.68 -4.73,6.05 -12.38,7.22 -19.57,6.04l-1.23 -0.21 -0.17 -1.23zm-45.99 -124.01c0.39,1 0.76,2.01 1.11,3.02 0.21,0.34 0.42,0.67 0.63,1.02 1.93,3.13 5.05,7.9 9.15,8.22 2.61,0.2 6.44,-1.22 9.04,-1.85 5.25,-1.25 10.01,-1.33 15.31,-0.14l1.24 0.27 0.07 1.27c1.12,17.72 -15.65,23.17 -30.05,17.5 -7.03,-2.76 -12.42,-7.45 -16.96,-13.4 -3.03,-3.97 -5.48,-8.91 -8.52,-12.58l-0.22 -0.27 -7.97 -27.18 3 0.93c12.43,3.83 14.61,8.86 23.09,18.14l0.34 0.37 0.74 4.68zm309.32 -146.97c0.43,-22.15 -24.51,-16.19 -19.41,-37.93 0.23,-0.99 -0.09,-1.5 -0.24,-2.45l-0.06 -0.35 0.09 -0.34c1.18,-4.5 2.97,-11.23 -0.89,-14.95 -2.28,-2.19 -4.16,-3.13 -5.78,-6.14 -2.51,-4.65 -2.18,-11.17 -1.56,-16.23l0.19 -1.56 1.56 0.07c20.71,0.96 26.07,11.98 26.41,30.99 0.08,4.79 0.22,21.88 7.05,23.24 1.59,0.32 3.46,-0.07 5.02,-0.42 2.66,-0.61 5.7,-1.53 8.4,-0.67 5.89,1.88 6.23,11.33 6.32,16.3l0.01 0.22 -0.05 0.21c-4.94,20.5 -20,17.22 -13.1,42.46l0.05 0.16 1.28 19.18 -9.02 7.16 -1.05 -0.92c-17.73,-15.5 -17,-29.23 -9.48,-50.49l0.05 -0.14 4.21 -7.4zm-34.54 297.69c5.41,-16.55 -2.98,-21.7 -12.88,-34.23 -4.04,-5.13 -9.03,-10.92 -12.23,-16.61 -2.88,-5.11 -5.07,-11.36 -7.25,-16.82 -2.96,-7.43 -6.7,-14.61 -12.05,-20.63 -3.61,-4.05 -7.61,-7.03 -11.62,-10.59 -9.93,-8.84 -13.05,-19 -15.18,-31.89 -6.13,-37.11 -7.04,-40.41 -38.18,-64.03 -22.17,-16.82 -30.35,-41.11 -34.61,-67.52l-0.93 -5.73 3.85 4.34c4.63,5.21 8.23,10.82 11.69,16.84 10.35,18.06 16.41,28.49 33.78,41.44 27.9,20.81 30.11,26.11 38.16,58.6 2.66,10.73 5.88,23.36 13.35,31.87 3.05,3.48 6.69,6.63 10,9.86 5.52,5.37 10.51,11.04 15.25,17.12 13.39,17.17 14.34,45.95 33.17,57.16 10.25,-6.68 3.95,-4.64 10.63,-12.85l0.08 -0.09 12.19 -11.26 1.15 1.01c19.63,17.28 3.1,30.13 -4.52,47.93 -2.69,6.26 -3.07,10.57 -2.11,17.19 1.43,9.85 1.21,15.14 -2.97,24.57l-0.64 1.45 -1.48 -0.55c-7,-2.57 -11.9,-5.63 -17.91,-9.86 -6.1,-4.28 -11,-7.05 -18.2,-9.32 -3.92,-1.24 -7.68,-1.81 -11.77,-2.16 -3.2,-0.27 -6.54,-0.4 -9.63,-1.33 -3.57,-1.07 -6.29,-3.06 -8.71,-5.87l-1.17 -1.36 1.43 -1.08c1.88,-1.43 5.72,-4.83 8.02,-5.29 1.41,-0.28 3.16,0.06 4.58,0.23 3.27,0.38 6.53,0.51 9.83,0.5 8.05,-0.02 9.49,0.63 16.88,-1.04zm-777.78 -281.06l-10.16 2.38c-0.68,0.18 -1.46,0.44 -2.16,0.76 -0.08,1.34 -0.01,2.67 0.22,4 2.34,13.26 20.77,23.89 31.63,29.59 7.34,3.85 14.89,7.26 22.43,10.69 5.09,2.32 11.54,5.04 16.11,8.2 7.6,5.24 13.83,10.89 20.6,17.06 19.72,17.93 39.95,25.93 65.1,34.45 17.83,6.04 35.88,10.63 53.72,16.38 15.88,5.11 30.14,11.45 44.74,19.54 38.11,21.14 71.76,19.67 112.66,7.82 29.98,-8.69 59.82,-15.53 90.59,-20.42 -1.85,-2.45 -3.94,-4.65 -6.05,-6.93 -5.85,-6.35 -9.25,-11.57 -10.9,-19.93 -5.86,0.22 -12.01,0.6 -17.69,1.9 -13.21,3.02 -19.94,13.06 -32.35,17.11 -14.92,4.86 -27.42,1.12 -42.22,4.21 -9.08,1.9 -20.84,4.25 -30.16,3.71 -4.89,-0.28 -8.53,-1.32 -12.41,-4.33 -3.11,-2.43 -5.06,-4.39 -8.83,-6.03 -6.4,-2.79 -14.91,-3.41 -21.8,-3.58 -32.46,-0.83 -51.48,-2.12 -70.26,-30.73l-2.17 -3.31 3.9 0.73c30.21,5.64 36.94,23.86 72.42,20.47 18.43,-1.77 32.38,-2.32 49.77,4.08 9.22,3.4 15.77,4.82 25.75,5.13 8.84,0.27 16.82,-1.44 25.08,-4.44 16.11,-5.85 28.4,-13.35 45.97,-16.17 4.51,-0.72 9.04,-1.36 13.57,-1.94 -0.19,-5.92 0.42,-11.29 2.47,-16.98 1.45,-4.04 3.44,-7.92 5.24,-11.81 2.42,-5.24 4.51,-10.45 6.27,-15.94 -0.04,-0.09 -0.07,-0.18 -0.11,-0.27l-1.28 0.24c-11.11,2.11 -22.64,3.21 -33.9,4.22 -14.71,1.31 -30.67,2.07 -45.13,4.78 -18.82,3.54 -35.1,4.73 -54.03,1.7 -14.67,-2.35 -28.59,-5.7 -43.5,-7.4 -9.3,-1.05 -18.54,-1.62 -27.9,-1.77 -7.28,-0.12 -14.57,0.01 -21.85,-0.19 -17.22,-0.5 -31.6,-3.64 -47.89,-9.3 -30.52,-10.6 -62,-7.69 -92.28,-16.13 -9.14,-2.55 -18.2,-7.11 -27,-10.73 -11.74,-4.83 -23.19,-8.35 -35.81,-10.07 -3.18,-0.43 -7.19,-0.96 -10.4,-0.75zm479.2 -48.34c-0.33,-0.33 -0.73,-0.7 -1.01,-0.85 -0.41,0.2 -0.73,0.32 -1.28,0.22 -2.17,-0.44 -2.46,-7.75 -2.71,-9.43 -1.36,-8.86 5.24,-22.9 9.66,-30.5 7.54,-12.99 13.28,-16.3 24.49,-25.09l0.21 -0.16 5.97 -2.22c15.37,-4.54 32.02,-3.7 39.84,12.45l0.07 0.15 4.46 16.55 -0.12 0.44c-0.55,2.03 -1.01,4.11 -1.32,6.21 12.9,-0.56 18.81,0.79 29.9,-9.4 0.13,-4.49 -1.97,-8.34 -4.65,-11.87l-0.12 -0.17 -0.08 -0.19c-1.56,-3.62 -2.72,-7.15 -4.71,-10.59 -1.92,-3.3 -4.62,-6.06 -6.37,-9.09 -7.17,-12.44 -5.57,-13.7 1.5,-26.11 1.38,-2.26 2.85,-4.46 4.43,-6.59 -8.49,1.94 -17.03,3.74 -25.59,5.33 -4.52,0.83 -12.75,2.6 -17.25,2.44 -9.97,-0.35 -16.27,-2.52 -25.48,-5.48 -10.96,-3.51 -19.1,-3.32 -30.4,-0.9 -8.99,1.92 -17.35,4.7 -26.17,6.94 -11.05,2.82 -21.08,3.14 -32.45,2.54l-5.9 -0.31 5.18 -2.85c1.02,-0.57 2.09,-1.28 3.2,-1.77l9.46 -3.79 0.08 -0.03c11.81,-3.38 23.56,-7.06 35.4,-10.37 7.94,-2.23 15.98,-4.23 24.21,-4.99 12.29,-1.12 24.46,0.71 36.51,3.03 29.79,5.74 52.7,-10.89 81.17,-14.12 19.35,-6.36 39.3,-1.34 56.18,9.05 -3.61,-42.1 -10.84,-68.16 -39.57,-99.45 -42.44,-46.22 -95.82,-78.19 -156.15,-95.13 -149.65,-42.01 -328.86,12.72 -430.98,129.42 -27.3,31.18 -35.75,56.99 -43.24,97.2 -2.53,13.57 -4.06,27.11 -6.13,40.72 -1.54,10.12 -3.53,20.56 -8.22,29.75 -6.28,12.3 -16.56,20.42 -28.34,26.98 24.26,21.76 75.29,23.44 106,27.13 42.7,5.14 83.84,15.8 125.65,25.33 37.85,8.62 77.05,16.4 116.05,14.5 22.54,-1.1 44,-6.65 66.76,-6.24 20.46,0.36 44.33,1.18 64.78,-1.62 -0.57,-9.11 3.24,-16.23 11.01,-21.61 20.75,-14.37 35.24,4.69 54.88,2.79 3.78,-12.74 1.4,-12.41 -6.82,-23.46 -2.14,-2.86 -13.43,-16.4 -13.08,-20.18 0.13,-1.43 0.79,-2.92 1.09,-4.61zm-411.95 14.01l29.52 -10.34 0.16 -0.02c6.35,-0.89 12.76,-1.28 19.12,-2.03 34.49,-4.05 74.94,10.95 105.93,25.23l5.69 2.62 -6.23 0.59c-12.81,1.22 -28.63,2.83 -41.02,-1.51 -4.03,-1.41 -7.92,-3.34 -11.77,-5.17 -5.6,-2.67 -11.19,-5.14 -16.99,-7.38 -22.39,-8.65 -51.25,-1.34 -75.05,-1.81l-9.36 -0.18zm273.41 21.77c16.06,-14.04 40.2,-14.61 60.35,-13.18 26.56,1.89 35.19,-3.94 58.88,-11.85l3.5 -1.18 -1.4 3.42c-1.89,4.57 -4.17,9.94 -8.1,13.14 -3.72,3.02 -9.64,4.6 -14.17,6.01 -10.29,3.21 -20.11,6.72 -30.06,10.92 -6.21,2.63 -13.75,5.66 -20.58,3.93 -4.6,-1.16 -9.21,-3.7 -14.06,-5.06 -10.43,-2.93 -22.47,-3.34 -33.22,-3.19l-4.6 0.07 3.46 -3.03zm-123 -45.03c0.67,-0.36 1.17,-0.72 1.78,-1.17 2.21,-1.64 6.68,-2.93 9.25,-3.78 2.31,-0.75 4.93,-1.21 7.31,-1.8 16.46,-4.12 33.66,-7.3 50.69,-7.31 10.06,0 19.27,1.47 29.16,2.15 11.38,0.79 20.59,-0.75 31.4,-4.45 10.47,-3.59 24.35,-8.48 35.33,-4.33 3.01,1.13 5.86,2.65 8.89,3.79 4.58,1.72 9.26,2.67 14.12,3.2 22.09,2.42 34.98,-9.87 55.3,-12.4l8.71 -1.08 -33.45 18.43 -0.15 0.05c-20.28,6.71 -32.19,7.41 -52.73,3.78 -15.78,-2.8 -26.01,-2.41 -41.61,2.36 -10.6,3.25 -20.26,5.45 -31.05,1.98 -10.44,-3.36 -15.04,-5.22 -26.66,-5.04 -4.3,0.06 -8.58,0.44 -12.83,1 -17.91,2.38 -34.2,7.23 -52.6,7.79l-7.03 0.21 6.17 -3.38zm-216.32 -7.25c2.41,-3.48 3.57,-5.4 6.5,-8.61l0.06 -0.07 20.31 -17.82c10,-9.26 21.62,-17.84 34.87,-21.72 9.44,-2.76 17.96,-2.67 27.65,-2.16 21.1,1.11 33.01,-0.31 50.98,-13.07 30.38,-21.57 51.62,-2.36 83.69,-1.27 13.9,0.47 25.7,-1.88 39.25,-3.9 18.02,-2.69 31.87,-2 49.39,3.68l3.37 1.09 -2.98 1.93c-4.13,2.68 -8.3,4.36 -13.26,4.55 -4.22,0.16 -8.57,-0.77 -12.72,-1.51 -5.78,-1.03 -11.26,-1.7 -17.16,-1.72 -9.95,-0.04 -17.56,1.73 -27.01,4.31 -4.96,1.36 -9.81,2.6 -14.92,3.27 -32.58,4.32 -48.78,-15.69 -82.61,-0.13 -10.7,4.93 -21.74,10.04 -32.03,15.8 -1.19,0.67 -5.77,3.76 -7.13,3.67 -0.62,-0.05 -1.2,-0.38 -1.8,-0.55 -1.4,-0.39 -3.13,-0.49 -4.56,-0.54 -10.77,-0.41 -23.78,1.42 -34.42,2.82 -16.42,2.18 -25.13,6.17 -36.84,17.43 -8.7,8.37 -14.86,13.37 -26.74,17.09l-4.7 1.47 2.81 -4.04zm200.32 -122.1c0.88,-0.84 1.79,-1.8 2.75,-2.55l0.18 -0.14 39.72 -16.47 0.11 -0.03c16.73,-4.53 31.55,-11.08 46.71,-19.37 11.96,-6.53 23.82,-13.97 36.47,-19.07 15.87,-6.4 30.88,-7.95 47.83,-5.56 17.06,2.4 31.13,0.67 47.8,-2.73 18.72,-3.83 33.94,-6.95 53.36,-5.47 29.81,2.28 60.35,14.49 86.97,27.45l4.96 2.42 -5.47 0.77c-33.42,4.72 -62.29,-13.49 -95.35,-14.7 -13.35,-0.49 -26,1.61 -38.97,4.42 -11.94,2.59 -23.93,5.7 -36.14,6.62 -6.57,0.49 -13.11,0.32 -19.62,-0.78 -14.19,-2.4 -27.2,-2.72 -40.91,2.11 -6.67,2.35 -13.02,5.64 -19.26,8.95 -7.93,4.2 -15.76,8.38 -23.92,12.13 -27.27,12.53 -56.26,19.87 -85.77,24.88l-5.42 0.92 3.97 -3.8zm-164.62 61.31c2.84,-17.41 30.37,-41.9 41,-57.15 24.02,-34.46 48.81,-63.24 87.78,-80.65 13.74,-6.15 28.21,-10.84 42.39,-15.89 18.17,-6.48 35.67,-13.55 52.98,-22.14 21.57,-10.7 43.33,-19.47 66.99,-24.33 34.3,-7.06 71.46,-5.71 106.29,-4.51 43.21,1.49 123.62,13.74 143.31,57.5l1.97 4.39 -4.28 -2.19c-8.32,-4.26 -16.11,-9.24 -23.91,-14.36 -13.43,-8.79 -25.75,-16.65 -40.88,-22.42 -58.35,-22.22 -115.66,-11.59 -175.74,-5.66 -9.72,0.96 -20.57,4.15 -29.87,7.1 -12.86,4.06 -25.58,8.83 -38.08,13.86 -15.24,6.13 -30.4,12.76 -45.19,19.92 -7.62,3.68 -19.83,9.35 -26.41,14.57 -8.11,6.42 -15.05,13.36 -22.83,19.95 -10.22,8.65 -22.42,14.09 -34.68,19.24 -12.07,5.08 -21.6,12.27 -30.35,21.94 -9.95,10.99 -18.01,23.86 -27.21,35.51 -11.79,14.96 -24.46,26.96 -40.72,37.03l-3.15 1.95 0.59 -3.66zm1647.54 313.96c-22.87,2.3 -47.36,10.62 -73.07,15.22 -41.12,7.36 -15.73,10.97 -70.13,8.75 4.73,7.9 10.13,10.14 15.79,19.34 -6.28,1.78 -12.63,-0.16 -16.63,-3.48 -7.54,-6.27 -4.61,-10.76 -3.55,-17.34l-27.62 -2.97c0.22,1.2 0.61,1.29 0.86,2.03l2.64 3.57c3.34,4.82 5.06,8.86 4.52,15.72 -0.56,6.91 -5.02,14.05 -10.7,17.24 -18.81,10.52 -34.22,-6.91 -47.95,3.25 3.22,0.56 8.3,0.95 12.42,1.12 2.08,0.08 5.26,0.07 7.2,0.28 0.6,0.07 2.32,0.3 2.88,0.41 3.66,0.69 2.44,0.42 4.34,1.18 -54.79,8.65 -102.29,-2.25 -142.93,-33.63 -19.14,-14.78 -24.23,-27.77 -30.6,-34.01 -10.5,6.21 -14.43,4.52 -24.44,0.51 9.08,32.19 22.59,39.78 48.72,54.37 33.41,18.65 86.95,28.58 128.27,23.66 70.63,-8.41 105.13,-33.92 162.53,-54.75 8.76,-3.18 18.65,-6.44 28.03,-9.05 6.57,-1.84 25,-5.74 29.42,-11.42zm-352.09 -98.05c0.68,0.46 1.35,1.21 2.15,2.55 4.36,7.34 -1.27,3.93 2.25,11.07 3.52,7.14 6.93,9.24 -1.36,15.24l-2.24 1.55c-0.27,0.18 -0.8,0.49 -1.15,0.79 9.59,22.28 28.15,28.49 44.31,40.91 6.92,5.32 8.5,10.72 18.49,9.5 -7.57,-14.06 -22.73,-18.14 -33.2,-27.67 -3.45,-3.13 -6.69,-6.44 -10.14,-10.09 10.5,3.42 13.74,6.03 26.96,7.29 30.45,2.91 25.45,29.03 43.74,32.57 9.76,1.89 23.03,-5.7 27.73,-11.51 -16.2,-10.61 -21.64,-5.56 -44.34,-30.2 -24.96,-27.08 -6.1,-8.06 -45.94,-13.69 -7.08,-1 -8.82,-0.55 -12.29,-5.8 -2.5,-3.78 -5.78,-9.47 -5.97,-14.34 46.93,-18.18 44.78,-2.01 64.24,10.82l10.12 -2.33c-3.81,-6.2 -10.86,-13.48 -15.94,-19.3 -7.2,-8.27 -8.38,-11.74 -20.07,-12.85 -14.58,-1.4 -13.25,-4.36 -25.09,2.25 -5.23,2.91 -12.8,8.37 -18.94,9.93l-3.32 3.31zm30.34 -30.3c2.48,3.26 2.32,5.26 5.67,8.11 0.61,-3.63 0.85,-8.83 0.2,-13.98l-5.87 5.87zm91.36 -91.26c1.3,-0.24 2.78,-0.49 4.46,-0.74 -0.38,-0.93 -0.75,-1.79 -1.13,-2.59l-3.33 3.33zm8.23 -8.23c0.33,2.54 -0.42,4.08 0.89,6.32l7.32 -1.46c-0.82,-4.48 -1.85,-7.64 -3.07,-9.99l-5.14 5.13zm15.69 -15.66c3.53,1.74 6.88,4.1 10.2,7.02 6.06,5.32 4.02,5.21 12.71,2.75 -4.49,-5.47 -14.3,-8.08 -19.8,-12.88l-3.11 3.11zm10.67 -10.67c6.07,-1.41 13.64,-2.84 20.77,-3.58 1.24,0.94 2.5,1.85 3.79,2.74 2.4,0 4.36,0.15 6.68,0.89 0.53,-0.31 1.08,-0.55 1.6,-0.87 1.36,-0.85 2.71,-1.67 4.13,-2.38l0 0 0.41 -0.2c2.25,0.5 4.03,1.28 5.14,2.43 -10.12,9.04 -18.76,3.74 -28.14,16.38 12.4,8.78 19.41,-0.87 33.15,-6.74 9.9,-4.23 32.82,-11.1 41.21,-5.02 -4.32,4.87 -24.27,10.59 -39.29,20.99 10.24,5.02 19.08,-5.13 27.83,-9.16 6.77,-3.11 26.27,-6.89 30.98,-11.51 -6.42,-2.08 -11.28,-1.65 -17.33,-4.84 -3.58,-1.89 -3.25,-2.02 -8.46,-2.18l-9.98 -0.96c4.92,-4.1 16.24,-2.44 23.52,-1.69 14.08,1.47 8.08,6.01 18.66,8.51l-0.23 -5.3 19.27 3.03 -4.37 4.28c-0.27,0.21 -0.86,0.56 -1.23,0.91 10.36,0.48 24.89,3.13 34.93,5.64 13.19,3.29 26.18,-3.33 39.59,-5.09 17.43,-2.28 40.86,-11.65 58.18,-17.84 3.73,-1.34 5.96,-2.1 9.66,-3.46l7.78 -4.92c-9.4,0.8 -13.59,5.63 -20.26,1.93 0.29,-0.31 0.73,-1.14 0.96,-0.83l3.18 -2.23c20.26,-10.83 22.22,-2.56 28.09,-2.29 6.26,0.29 5.68,-3.74 6.61,-7.37 12.77,3.2 5.83,-2.99 16.1,-6.46 10.12,-3.41 10.63,2.2 22.01,-0.37 4.22,-4.05 3.29,-7.87 10.6,-9.51 8.99,-2.01 7.62,1.71 14.26,5 23.65,-3.58 13.22,-12.41 36.8,-6.75 5.46,1.31 38.65,-2.29 43.29,-4.23 -7.66,-0.46 -14.44,-0.96 -20.75,-1.38 54.81,-69.09 85.27,-208.37 57.29,-274.1 -12.23,-28.75 -33.62,-32.2 -77.46,-70l-16.52 16.51c1.12,1.74 2.22,3.55 3.28,5.42 1.12,0.38 2.54,0.98 3.27,1.33l37.98 22.27c62.63,33.23 -9.39,61.89 -46.29,26.3 -27.51,2.25 -30.78,17.81 -49.24,0.53 -0.93,-0.87 -1.74,-1.69 -2.46,-2.45l-13.45 13.43c2.15,3.63 3.53,6.06 14.92,10.16 15.11,5.43 31.39,-5.31 49.25,-5.76 22.3,28.61 36.77,16.97 66.83,13.26 23.43,31.47 3.24,117.1 -6.74,152.22 -7.81,27.48 -22.78,61.22 -48.26,89.79 -5.87,0.7 -31.14,3.08 -43.52,5.77 -32.33,7.03 -44.97,10.22 -74.32,21.52 2.98,-2.03 18.53,-49.26 20.57,-58.84 -10.09,11.16 -24.27,40.08 -40.04,66.27 -11.71,4.54 -23.36,9.34 -35.08,14.31 -14.97,6.35 -18.94,9.68 -31.21,10.07 -2.01,-14.06 -0.93,-30.91 -0.63,-42.32 2.22,-85.91 27.88,-151.02 39.69,-188.01l-19.19 19.17c-11.79,28.38 -20.15,61.25 -25.18,81.98 -10.01,41.22 -7.39,106.17 -14.17,128.22 -3.11,-0.33 -6.15,-0.72 -9.16,-1.15 -44.49,-31.32 -34.28,-86.29 -35.92,-124.71l-9.56 9.55c-0.33,5.06 -0.34,12.18 -0.56,23.5 -0.27,14.03 1.58,32.92 -1.56,45.72 -12.97,-9.48 -24.06,-20.99 -33.4,-33.74l-11.98 11.97c9.31,17.79 16.72,38.05 18.46,56.6 -3.22,-0.13 -6.5,-0.22 -9.82,-0.26 -7.73,-10.46 -16.25,-19.57 -25.6,-28.67l-0.07 3.93c-0.12,5.45 4.95,12.98 11.17,22.23l1.71 2.56c-9.42,0.19 -19.09,0.72 -28.85,1.6 -5.14,-3 -10.32,-6.26 -14.98,-10.07l-6.84 6.83c1.92,1.84 3.77,3.48 5.6,5.01 -4.13,0.53 -8.26,1.12 -12.38,1.77l-4.72 4.71zm304.01 -443.74c-21.9,0 -41.89,5.31 -62.7,4.55 -19.95,-0.74 -32.95,-8.95 -55.62,-4.97 1.2,0.56 4.13,0.59 3.66,1.56l10.39 4.16c4.78,1.8 6.5,2.41 12.07,4.27 36.79,12.3 44.41,7.22 76.55,5.86l15.65 -15.43zm-84.39 83.2c-22.27,2.2 -13.67,-4.01 -31.22,-29.29 -28.79,-0.35 -24.27,-3.69 -40.38,-13.48 -7.76,-4.72 -2.04,-2.64 -9.5,-4.93 14.85,22.2 12.77,14.12 29.98,27.11 17.31,13.04 10.44,16.31 21.57,29.22 5.38,3.84 10.65,5.01 15.88,4.85l13.67 -13.48zm-180.68 178.14c-2.4,-19.94 -2.13,-38.77 0.46,-54.49 12.63,-76.52 32.94,-98.61 74.62,-173.2 -53.28,45.4 -102.99,150.16 -93.53,227.83 0.65,5.32 1.48,10.52 2.48,15.6l15.97 -15.74zm-38.54 38c-24.29,-11.89 -51.58,-18.44 -82.42,-23.1 -62.71,-9.5 -124.54,-18.86 -185.65,-2.42 -15.35,4.14 -32.03,11.98 -45.42,18.28 -6.59,3.11 -13.93,6.87 -20.92,8.91 -10.72,3.16 -27.74,8.16 -24.93,26.79 0.66,4.35 2.23,7.62 3.64,10.53 0.72,1.51 1.4,2.91 1.82,4.21 2.74,8.37 5.02,16.02 7.16,23.19 8.72,29.26 15.1,50.66 42.9,88.14 18.81,25.36 44.31,50.6 73.65,72.4l6.97 -6.87c-13.45,-9.88 -25.79,-20.28 -36.57,-30.7 -9.2,-8.87 -18.98,-17.88 -25.61,-28.91 5.05,3.43 6.32,5.66 7.88,8.42 9.62,17.03 23.25,18.57 38.89,26.79l4.76 2.49c-1.17,-2.29 -2.46,-4.63 -3.5,-6.97 -0.79,-1.76 -1.52,-2.35 -2.89,-3.71 -2.89,-2.87 -5.64,-6.01 -9.66,-7.18 -2.44,-0.71 -5.3,-1.55 -23.57,-21.17 -7.76,-8.34 -12.05,-9.31 -15.91,-10.17 -4.17,-0.95 -7.75,-1.74 -16.57,-15.87 -4.58,-7.32 -12.8,-22.89 -19.79,-37.95 -5.39,-11.61 -10.03,-22.88 -11.64,-29.71 -0.55,-2.32 -1.07,-3.94 -1.54,-5.02l-0.06 -0.9 28.9 20.66 -11.47 -12.34c-8.93,-9.63 -25.03,-30.14 -27.43,-43.24l47.35 0.62 -6.37 -3.31c-12.63,-6.57 -17.87,-6.61 -26.98,-6.67l-4.68 -0.06c9.48,-5.99 25.79,-8.44 36.75,-9.15 4.72,-4.82 -1.77,-4.05 0.62,-7.28 3.88,-2.29 9.74,-0.87 16.87,0.87 8.42,2.04 18.51,4.49 30,2.17l6.35 -1.29 -33.8 -10.99c17.54,-10.18 49.68,-13.83 85.24,-13.7 52.72,0.2 112.77,8.74 144.33,16.71 15.38,3.88 30.72,8.87 45.2,15.49l8.1 -7.99zm-152.78 150.64c-5.19,-2.79 -10.7,-5.31 -16.72,-7.41 -24,-8.37 -51.82,-9.88 -72.85,-24.84 -15.6,-11.11 -31.25,-43.24 -51.41,-42.12l-3.91 0.23 2.83 2.71c4.98,4.74 8.03,6.78 10.61,8.5 3.69,2.47 6.37,4.25 12.93,13.45 24.54,34.42 42.62,38.66 66.84,44.36 9.9,2.32 20.85,4.89 33.73,9.96 2.79,1.09 5.72,2.53 8.78,4.2l9.17 -9.04zm-36.01 35.5l-1.18 -1.29c-15.49,-17.12 -31.71,-24.81 -48.17,-32.62 -20.94,-9.94 -42.3,-20.07 -62.8,-50.51 -2.23,-3.32 -2.71,-4.83 -3.07,-5.95 -0.66,-2.07 -0.99,-3.12 -6.72,-8.09l-2.93 -2.54 0.1 3.88c0.45,15.73 28.86,50.19 41.28,59.35 12.04,8.89 22.02,13.07 31.57,17.08 13.48,5.65 26.12,10.95 42.59,29.12l0.37 0.4 8.96 -8.83zm544.08 -99.65l8.8 -19.26c8.75,-22.11 15.38,-41.57 23.32,-63.17 -30.62,22.82 -38.3,64.93 -58.27,89.97 7.51,-3.76 16.47,-5.38 26.15,-7.54zm-168.47 116.3c1.3,1.83 2.57,3.66 3.77,5.51l0.38 -0.23c-0.86,8.38 -2.63,15.26 6.75,25.01l11.68 -2.32c-2.6,-7.78 -12.04,-12.09 -11.71,-22.7 0.32,-10.19 6.05,-15.16 9.39,-22.18l-45.35 -0.4c-5.27,19.66 -0.21,25.17 5.22,47.3l2.84 6.87c6.92,-4 3.32,-0.46 0.83,-21.16 -1.13,-9.39 0.33,-15.95 2.42,-22.34 8.09,-2.74 11.42,-1.56 17.54,-0.27 0.56,2.65 0.73,5.09 0.69,7.38l-4.45 -0.47zm-119.53 -269.13l2.25 -23.35c7.65,-48.57 36.93,-100.36 42.7,-119.64 -33.62,36.14 -56.78,103.34 -52.29,150.23l7.34 -7.24zm-125.75 123.88c-2.05,-1.58 -10.39,-4.5 -13.29,-6.76 -2.72,-2.15 -0.01,-3.67 -2.32,-4.53 8.68,1.7 15.15,2.45 23.61,3.5l-8 7.79zm-82.17 51.6c-0.29,1.61 1.31,5.11 2,6.87l-2.52 -0.01c-6.23,-0.03 -27.14,-5.74 -47.79,-12.46 -19.64,-6.38 -39.15,-13.7 -45.65,-17.9 -12.48,-8.07 -23.62,-18.45 -37.21,-24.63 -14.79,-6.74 -31.96,-7.85 -46.21,-15.6l-5.34 -2.9 6.08 -0.29c30.56,-1.48 54.61,13.26 80.37,29.05l5.39 3.31c12.99,7.9 35.11,14.14 53.77,19.41 13.22,3.72 24.74,6.97 30.36,10.08 2.88,1.59 4.33,2.2 5.05,2.51 1.28,0.52 1.98,1.05 1.7,2.56zm0.76 -83.12c25.44,5.04 52.85,13.99 62.07,18.44l3.73 1.79c-0.9,0.32 -5.04,1.55 -5.35,2.17 -0.9,1.85 -0.95,1.93 -12.12,0.07 -8.34,-1.38 -17.62,-3.65 -27.2,-5.99 -21.1,-5.14 -43.68,-10.65 -60.13,-7.73 -6.09,1.09 -11.41,2.06 -16.03,2.91 -17.31,3.18 -25.04,4.6 -32.33,3.96 -5.9,-0.52 -11.26,-2.35 -20.94,-5.65 -12.14,-4.14 -24.23,-7.93 -36.51,-11.59l5.32 -1.67c1.41,-0.44 1.93,-0.77 2.29,-0.99 1.21,-0.76 1.46,-0.91 6.61,-0.52 5.83,0.44 10.38,2.29 15.36,4.31 12.31,4.99 27.46,11.12 71.99,-1.8 9.52,-2.76 25.97,-1.13 43.24,2.29zm205.98 76.53c-4.88,-3.33 -9.66,-6.74 -14.26,-10.34l6.63 -6.62c1.33,1.46 2.52,2.75 3.54,3.82 4.28,5.45 3.44,9.8 4.09,13.14zm-98.87 -70.24l-4.42 -0.86c-9.03,-1.74 -19.8,-3.81 -33.25,-7.14 -27.74,-6.86 -53.18,-20.24 -82.22,-21.65 -24.96,-1.2 -48.71,5.3 -73.74,-0.54l-9.85 -2.3c9.54,-1 20.16,-2.63 29.55,-3.1 18.87,-0.72 37.16,-4.87 56.24,-4.25 19.49,0.64 36.26,6.13 53.38,11.74 9.91,3.25 19.96,6.53 30.76,8.92 15.09,3.34 29.56,5.52 43.51,9.34l-9.96 9.84zm-78.98 223.31c1.23,3.06 1.59,7.8 0.22,15.55l8.45 -5.37 -5.45 -13.4 -3.22 3.22zm19.08 -19.05c3.52,4 4.57,12.93 10.47,15.45 3.26,-6.54 1.74,-6.79 -3.48,-15.88 -0.93,-1.61 -1.59,-3.07 -2.09,-4.47l-4.9 4.9zm632.82 7.25c4.55,-10.06 0.53,-36.38 17.96,-26.94 5.36,2.9 0.68,3.05 10.6,3.51 -5.92,-9.77 -15.34,-25.66 -27.57,-24.86 -8.74,12.39 -4.12,30.73 -0.99,48.29zm-163.83 -118.77c15.11,9.34 15.93,33.66 27.68,20.79 -4.56,-11.87 -10.83,-2.01 -12.7,-17.82 21.13,-3.95 32.34,13.16 45.09,-0.89 -14.91,-3.41 -37.55,-10.57 -53.24,-6.19 -4.95,1.38 -4.89,0.65 -6.83,4.11zm-455.69 98.23c3.65,5.11 5.02,10.3 5.02,22.66 12.07,-6.21 2.79,-11.89 -1.89,-25.78l-3.13 3.12zm11.98 -11.97c10.17,-3.63 14.81,4.89 20.46,18.58 11.84,-4.37 7.38,-5.3 1.28,-16.33 -2.85,-5.14 -6.32,-9.97 -9.98,-14l-11.76 11.75zm347.97 -8.05c15.42,-5.55 7.15,-11.8 23.1,-18.23 21.22,-8.57 16.88,3.98 31.93,-3.44 -5.08,-3.04 -2.2,-3.35 -6.04,-9.17l-46.77 1c0.26,11.76 3.08,15.06 -0.62,25.62l-1.6 4.22zm55.51 -57.77c10.77,18.83 1.59,29.7 9.66,32.25 6.84,-6.33 3.03,-14.53 0.53,-22.5 6.05,-4.15 13.94,-10.17 23.22,-10.53l8.84 15.71 8.25 -3.61c-10.58,-10.06 -8.33,-14.44 -11.09,-32.81 -19.34,9.12 -13,20.38 -39.41,21.49zm234.23 63.07c3.04,-3.21 5.01,-6.15 7.25,-10.07 -10.45,-33.37 -17.06,-29.03 -33.43,-33.18 -6.92,-1.76 -10.21,-4.14 -16.11,-5.36 1.6,18.17 -1.81,-0.76 21.48,22.29 6.98,6.92 16.17,17.68 20.81,26.32zm-749.94 114.86c3.04,-0.54 7.03,-2.99 12.08,-8.79l-1.79 -1.49 -10.29 10.28zm13.52 -13.51c1.29,1.09 2.48,2.38 3.61,3.92 -2.01,5.88 -2.13,3.42 -5.4,8.1l-4.32 7.47c-0.22,0.12 -6.94,2.29 -12.42,-0.98l-3.48 3.48c9.41,2.84 -2.46,3.87 6.93,5.46 6.52,1.09 1.26,-3.69 8.11,-3.19 0.24,0.02 -0.22,1.09 5.69,1.15 -0.18,-13.11 -1.64,-6.27 8.57,-12.52 -3.91,-20.95 2.02,-4.77 -0.37,-18.01 -0.46,-0.19 -0.88,-0.35 -1.29,-0.5l-5.63 5.62zm721.71 -152.41c-5,-13.59 -12.42,-14.12 -30.97,-22.12 -12.84,-5.54 -23.14,-11.19 -40.05,-11.38 8.04,14.95 19.22,11.93 32.67,21.65 14.52,10.48 -4.78,7.82 38.35,11.85zm-759.11 224.17c7.93,5.64 13.22,8.32 25.76,9.93 -7.05,-24.72 -2.78,-26.6 -0.32,-47.1 -22.68,1.25 -28.79,14.98 -25.44,37.17zm289.94 30.79c14.5,-0.94 39.69,-11.01 58.91,-15.48 10.58,-2.47 11.42,-4.59 11.3,-10.7 -18.34,-3.89 -24.44,-5.57 -43.51,1.66 -13.04,4.95 -9.67,2.02 -13.72,12.03 -2.87,7.1 -6.77,6.83 -12.98,12.49zm140.88 -174.87c7.22,23.54 1.69,17.68 -8.11,33.23 11.17,1.1 7.28,0.08 14.58,-7.19 5.37,-5.35 6.54,-8.84 10.95,-13.37 12.33,-0.7 22.7,9.11 27.48,17.53l8.58 -3.84c-5.85,-5.18 -9.34,-4.9 -15.59,-14.47 -6.72,-10.27 -3.69,-15.42 -1.47,-25.42l-36.42 13.53zm310.67 48.19c8.04,-4.93 1.83,-9.03 11.23,-22.41 4.25,-6.06 10.9,-13.04 22.93,-12.66 8.02,6.12 5.78,10.87 11.19,18.95 0.38,-9.14 3.64,-23.08 -0.86,-31.42 -4.89,-9.05 -15.34,-13.13 -25.52,-6.09 -5.71,3.96 -8.73,15.06 -13.89,22.32 -5.46,7.7 -4.19,15.49 -5.08,31.31zm-449.45 103.37l0.35 -28.2 12.66 22.89c11.64,-4.28 27.8,-14.22 42.85,-8.66 5.8,2.14 5.55,4.1 12.9,6.34 -3.74,-21.88 1.27,-26.2 11.27,-37.52 -8.56,-0.42 -30.69,5.88 -50.12,10.55 -12.56,3.01 -24.27,4.44 -29.56,5.97 -17.08,0.48 -28.78,0.59 -46.48,4.33 7.58,18.76 23.17,30.21 46.13,24.3zm125.87 -3.57l54.61 -4.48 -2.46 -18.18c-33.93,8.44 -42.79,-16.75 -52.12,1.46 -2.56,5 -1.24,14.5 -0.03,21.2zm153.19 -203.9l17.37 26.51c3.41,3.97 1.38,1.93 4.34,3.96 -1.82,-15.12 -11.07,-38.61 33.61,-27.74 17.36,4.21 9.91,17.08 20.02,21.76l2.63 -28.43c-21.39,0.97 -21.9,-4.27 -39.42,-8.92 -14.19,-3.77 -23.5,8.54 -38.55,12.86zm42.05 135.61c23.91,2.44 73.72,19.34 94.86,9.47 -6.22,-12.29 -18.03,-4.24 -43.37,-22.86 -16.88,8.96 -21.71,12.72 -35.02,0.22l-16.47 13.17zm-332.21 -47.28c2.12,-4.72 4.07,3.72 -0.01,-6.81 -0.22,-0.57 -28.81,-30.23 22.81,-23.48 22.93,2.99 7.43,16.48 22.23,13.32 4.51,-9.19 -11.54,-18.69 -15.91,-22.21 -7.57,-6.09 -22.17,-7.64 -32.94,-6.53 -35.27,3.64 -13.04,50.7 3.82,45.71zm350.69 30.78l28.45 -0.49c15.68,-1.31 0.15,-10.34 41.51,-17.87 -3.79,-7.18 -12.59,-12.04 -23.27,-10.76 -13.55,1.62 -24.91,1.51 -37.23,2.8 -0.91,12 -6.57,16.95 -9.46,26.32zm-138.19 -40.65c-4.06,-7.28 -18.91,-20.08 -7.73,-30.37 8.99,-8.29 24.89,-10.63 34.59,-5.25 3.63,12.06 -3.77,21.95 -7.71,29.56 11.14,1.45 7.56,-0.14 11.28,-6.98 10.25,-18.87 9.04,-18.41 3.09,-46.02 -7.3,0.66 -44.54,14.4 -48.7,18.66 -12.24,12.51 5.9,41.35 15.18,40.4zm119.35 92.42c28.66,3.18 13.98,1.18 33.09,9.49 10.71,4.64 23.74,5.66 37.36,3.5 -4.3,-4.03 -10.35,-4.75 -14.02,-11.91 -5.37,-10.5 1.32,-12.07 5.92,-17.12 -49.92,-3.14 -32.26,-10.24 -49.18,5.38 -3.81,3.52 -9.52,6.87 -13.17,10.66zm-378.64 -148.37c3.73,3.51 9.07,5.82 13.48,11.34 4.04,5.05 6,10.53 8.22,16.81 2.08,-2.76 3.73,-5.44 5.49,-7.83 -3.83,-10.99 -9.5,-9.26 -11.23,-24.98 13.43,-11.79 38.9,-11.6 51.02,-3.47l2.79 18.34c8.63,-2.5 5.76,-11.47 10.72,-30.64 -8.92,-1.75 -38.04,-8.51 -46.72,-6.95 -9.13,1.64 -25.02,21.88 -33.77,27.38zm180.65 -16.98c-2.91,23.02 -3.61,16.5 2,32.4 2.92,8.29 0.06,6.88 5.76,8.4 5.71,-9.27 -7.89,-19.94 10.08,-29.56 9.15,-4.9 26.59,-11.53 35.73,-7.4 3.73,6.87 -0.57,11.18 -1.03,19.8l8.23 -3.43c1.51,-5 1.68,2.4 -0.17,-1.8 -0.08,-0.19 -0.92,-1.22 -1.16,-1.75 5.89,-4.26 8.27,-4.08 7.11,-12.11 -0.85,-5.82 -3.46,-12.78 -4.54,-19.74l-62.01 15.19zm-329.21 90.4c5.33,1.56 9.95,-2.05 18.72,-0.71 23.14,3.51 20.69,28.48 28.83,39.15 12.46,-9.24 -17.36,-37.65 3.68,-41.56 18.8,-3.5 12.68,31.16 24.18,34.56 8.58,-9.63 -10.05,-43.64 -31.13,-56.76l-44.28 25.32zm66.48 -82.24c3.41,3.69 6.95,7.13 10.91,13.12 5.12,7.76 6.31,14.55 15.63,11.27 -13.41,-23.61 -27.33,-24.12 27.48,-35.74 17.06,-3.62 18.74,6.27 32.13,9.88 5.22,-3.44 13.34,-10.99 15.87,-16.03 -9.64,-0.99 -10.49,2.89 -18.63,-2.33 -27.59,-17.67 -7.17,-7.88 -50.33,3.7 -10.34,2.77 -17.66,5.35 -25.52,8.6l-7.54 7.53zm160.51 28.99c0.4,0.26 0.97,0.08 1.25,0.64 1.03,2.04 0.25,0.05 5.96,2.7 2.47,1.15 5.08,2.49 7.14,4.19 6.35,5.25 6.46,10.03 6.46,18.6l10.57 -3.27c-4.86,-13.86 -18.45,-23.75 -21.26,-27.36 2.76,-4.01 4.99,-6.73 7.68,-10.37 3.81,-5.16 7.21,-7.57 14.23,-5.69 6.3,10.08 4.83,30.01 12.18,39.31l6.13 -0.99c-0.59,-9.6 -3.19,-18.78 -5.67,-27.74 -3.61,-13.02 -2.41,-16.83 -2.79,-28.52l-36.75 -2.05c2.09,16.57 5.38,32.63 -5.13,40.55zm-28.75 53.7c6.43,21.22 9.56,31.37 1.41,54.61 -2.55,7.26 -4.65,11.42 -0.33,16.33 10.33,-5.29 -0.71,-14.83 9.21,-19.31 4.58,-2.07 8.05,-0.88 10.15,1.9 2.22,2.93 0.75,1.99 1.92,5.12 0.2,0.53 0.27,0.94 0.49,1.48l2.99 5.69 8.37 -2.41c-10.76,-18.09 -6.22,-13.96 -5.15,-34.22 1,-18.59 -1.39,-23.24 -11.43,-34.4l-17.63 5.21zm246.43 -79.14c8.07,12.15 14.68,29.7 6.13,45.52 -3.4,6.29 -5.68,5.75 -8.22,11.09l6.47 3.47c23.48,-17.07 -10.36,-55.36 30.42,-57.41 6.69,16.25 -11.78,16.8 -13.83,28.83 -1.34,7.89 10.64,29.45 15.37,35.49 18.78,-2.8 -7.3,-14.66 -7.5,-36.16 4.43,-5.45 16.51,-12.17 18.15,-17.46 2.81,-8.96 -4.82,-21.08 -9.82,-27.35l-37.17 13.98zm151.62 139.08c-1.62,9.41 -3.63,2.14 -1.15,12.31 1.41,5.74 2.97,8.01 3.65,14.9 26.28,-4.25 48.28,-18.91 71.76,-28.7 10.66,-4.45 12,-8.12 15.28,-17.12 -9.68,3.73 -4.57,5.53 -19.32,8.67 -7.17,1.52 -13.9,4.08 -21.33,5.79 -18.53,4.25 -33.33,1.45 -48.89,4.15zm-547.48 -86.07c29.52,5.3 36.45,29.5 34.98,54.53l14.43 -4.13c1.57,-5.49 1.84,0.23 -0.15,-6.8 -0.43,-1.47 -2.68,-5.44 -3.63,-7.16 -9.31,-16.65 -25.15,-38.55 -4.54,-37.42 10.51,0.56 19.27,22.03 26.98,34.74 4.43,7.31 4.21,8.86 12.34,7.2 -2.86,-8.61 -14.07,-25.53 -19.22,-32.09 -4.21,-5.37 -7.49,-8.03 -11.36,-12.72 -3.66,-4.44 -7.7,-9.96 -11.78,-14.35 -6.56,0.45 -33.85,11.39 -38.05,18.2zm472.56 -87.36c10.11,1.65 16.3,1.33 24.73,6.39 9.76,-10 7.7,-23.97 44.86,-23.28 28.4,0.53 28.09,24.7 45.33,22.37 -0.94,-7.34 -2.23,-9.78 -7.44,-13.72 -4.72,-3.59 -7.69,-5.73 -12.26,-9.38 -19.1,-14.09 -16.87,-18.04 -18.13,-22.01 -10.69,1.57 -69.62,32.85 -77.09,39.63zm-234.68 9.12c2.96,2.5 0.2,0.94 3.87,2.36 1.37,0.52 3.61,0.96 5.45,1.16 3.22,0.36 7.53,0.46 11.15,0.69 23.43,1.48 50.2,-4.55 73.48,-7.15 26.3,-2.92 14.52,-10.82 35.36,-16.02 4.83,-1.21 17.64,-2.79 22.2,-1.25 11.45,3.86 -1.21,10.65 15.65,9.44 0.62,-23.76 -14.33,-19.48 -32.64,-16.23 -32.97,5.85 -15.66,18.32 -92.21,19.07 -8.33,0.09 -14.74,0.1 -23.6,-0.16 -12.11,-0.35 -11.25,3.52 -18.71,8.09zm101.35 187.2l10.27 20.05c40.12,5.41 37.6,-1.79 50,-39.26 -25.53,-8.19 -40.77,13.53 -60.27,19.21zm-394.02 71.65c5.34,1.92 15.39,8.53 26.17,12.3 6.84,-11.99 9.86,-11.15 29.63,-10.05 14.1,0.77 25.61,-0.28 30.09,-11.37 -37.05,-3.56 -47.03,-24.41 -63.77,-34.34 6.57,15.55 4.63,26.98 -8.32,36.61l-12.57 6.15c-0.31,0.16 -0.87,0.4 -1.23,0.7zm597.23 -132.36c4.8,3.49 24.39,10.59 32.37,17.21 4.9,4.07 4.36,7.48 7.11,11.57 7.44,-3.41 2.99,-8.2 -1.08,-17.14 32.23,3.64 27.19,11.03 39.17,10.1 7.07,-6.51 11.27,-15.83 2.44,-27.66 -41.96,6.52 -35.51,-1.96 -54.5,-10.57l-19.99 10.9c-0.1,0.08 -2.91,2.39 -2.97,2.45 -2.46,2.44 -1.09,0.93 -2.55,3.14zm-22.48 -89.73c7.15,-4.75 12.23,-23.07 42.69,-18.05 24.21,3.99 8.46,25.82 5.69,37.18l29.42 -31.22c3.3,-7.1 1.78,-8.06 9.73,-11.55 -12.01,-15.5 -24.53,-8.42 -42.38,-7.73 -11.6,0.45 -38.19,-2.2 -46.89,-0.1l1.74 31.47zm-100.34 72.89c-3.7,7.8 -8.9,18.12 -8.93,26.87 16.43,-0.63 -8.28,-1.33 27.16,-8.98 11.23,-2.43 19.77,-8.47 29.8,-6.41 1.77,3.77 2.66,4.85 0.42,9.25l-5.71 9.46c14.35,-6.45 40.03,-30.6 43.19,-40.47 -18.8,0.24 -26.1,-10.06 -42.05,1.38 -18.12,13 -21.82,13.5 -43.88,8.9zm-372.43 -53.97c6.85,11.03 21.38,17.69 39.9,52.41 4.53,8.47 1.21,6.23 7.79,6.44 3.06,-11.31 -23.49,-37.39 -28.19,-52.45 1.01,-0.95 26.43,-18.68 33.85,3.3 5.29,15.72 6.71,29.86 18.43,39.82l11.42 -2.71c-2.96,-4.63 -7.49,-5.88 -10.84,-12.63 -7.87,-15.88 1.06,-40.65 -22,-55.48 -26.88,13.83 -14.76,10.74 -50.36,21.3zm186.88 163.61l36.59 -5.8c5.06,-16.1 0.95,-35.18 20.14,-34.07l-8.33 -14.83c-18.34,5.48 -25.91,3.94 -42.78,5.81 -2.43,16.22 -6.35,28.7 -5.62,48.89zm-139.28 -96.97c11.55,30.98 8.55,18.58 15.35,48.76l3.53 8.36c1.74,-2.38 1.35,-1.11 2.07,-4.85 1.23,-6.49 -1.91,-11.37 1.88,-17.72 2.48,-4.16 11.67,-10.7 17.33,-11.61 0.68,5.31 2.43,12.63 2.35,17.25 -0.02,1.58 -0.81,6.7 -0.8,6.91 0.54,11.6 -1.65,4.43 3.87,6.41 8.39,0.47 4.63,-1.19 4.88,-14.99 0.1,-5.83 1.12,-11.12 1.56,-16.57 1.38,-17.31 -0.25,-21.36 -6.94,-35.79l-45.08 13.84zm-55.97 119.77c9.31,3.09 49.53,-6.58 66.43,-5.2 17.15,1.39 45.27,11.9 50.48,-11.48 -31.22,6.63 -37,-8.06 -48.38,-32.03l-27.68 6.11c9.73,43.16 -7.31,32.81 -40.85,42.6 12.89,-20.12 29.7,1 33.73,-41.34 -19.27,3.11 -21.93,0.22 -38.9,-0.69 -1.55,31.84 -49.45,15.88 -57.18,14.25 10.1,13.44 37.47,31.2 62.35,27.78zm-62.47 30.18c1.96,1.94 -0.09,0.54 2.97,2.22 0.07,0.03 3.39,1.5 3.42,1.51l42.06 9.2c12.94,1.15 5.25,-2 14.86,-6.97 13.4,-6.92 24.82,2.71 39.05,-2.43 14.49,-5.23 12.7,-20.25 2.8,-28.8l-45.24 3.63c-2.81,5.87 3.95,14.77 -22.83,17.38 -11.1,1.08 -28.48,-1.92 -37.09,4.26zm248.01 -115.81c20.81,5.21 22.28,-14.19 65.09,-23.43 14.81,-3.2 10.84,-0.09 18.15,7.46l17.5 -2.15c-5.09,-11.15 5.47,-9.35 -17.52,-25.81 -21.02,-15.05 -47.53,-3.05 -63.69,16.93l-16.7 23.18c-1.66,2.43 -1.17,2.02 -2.83,3.82 1.06,-10.42 16.55,-33.87 26.81,-42.3 4.47,-3.67 9.72,-6.44 13.34,-10.17 -1.94,-17.49 -10.71,-15.94 -15.81,-22.73 29.05,-8.46 27.69,6.98 30.13,14.83l1.01 2.58c8.93,-3.1 2.5,2.37 7.46,-15.63 1.87,-6.79 4.14,-11.92 5.47,-18.16 -10.35,1.41 -68.51,14.14 -75.31,17.58 6.01,11.01 40.78,-5.82 39.77,22.97 -12.34,-4.33 -0.92,-7.12 -24.79,-9.05 -2.75,-0.22 -12.37,-1.45 -14.56,-2.22 -5.26,-1.86 -2.22,-0.09 -4.74,-3.47l-3.82 -6.87 -38.59 12.6c14.22,12.25 25.12,21.3 16.25,49.07 -1.58,4.94 -3.78,10.31 -2.2,15.35 1.92,6.17 0.67,2.93 3.51,5.49 6.59,-3.23 4.17,-1.91 8.52,-19.61 1.73,-7.04 2.31,-15.09 7.31,-20.34 10.42,-4.11 16.13,-2.25 20.92,4.3 -3.32,7.62 -5.27,2.27 -8.54,11.29 -1.58,4.39 -2.11,11.48 -1.53,17.07 4.3,-0.62 6.93,-1.48 9.39,-2.58zm161.84 -31.86c11.07,6.05 2.27,12.8 15.6,12.45 0.2,-0.41 0.17,-1.56 0.25,-1.34l0.33 -2.79c0.26,-5.33 -0.88,-6.75 2.8,-12.76 3.58,-5.87 5.35,-7.32 10.98,-11.07 -8.36,-8.47 -21.16,-17.54 -34.05,-17.84 -28.77,-0.7 -50.44,21.26 -50.23,43.42 0.02,2.98 -1.8,4.91 6.85,3.79 7.35,-0.95 13.19,-6.71 20.99,-8.98 7.23,-2.11 19.54,-5.75 26.48,-4.88zm-125.8 -140.34c13.5,3.65 71.5,-7.51 86.54,-13.86 28.02,-11.83 32.74,-6.12 42.68,-11.52 12.27,-6.68 19.78,-17.38 39.02,-14.81 -7.9,8.68 -18.31,9.37 -25.7,17.02l2.31 1.06c4.22,1.21 8.06,1.66 12.55,-0.44 5.18,-2.42 14.67,-21.1 43,-21.49 35.34,-0.49 42.51,19.47 53.39,9.27 2.53,-2.37 0.85,-0.44 2.17,-2.93 -5.54,-8.17 -22.12,-7.14 -26.84,-13.65 37.07,-7.73 33.64,7.83 62.67,2.59 -19.5,-11.84 -41.01,-11.91 -67.49,-7.01 -26.54,4.9 -55.14,8.58 -81.15,14.53 -21.85,4.99 -66.09,22.89 -104.01,32.59 -11.04,2.82 -31.25,4.88 -39.14,8.65zm125.06 223.21c4.94,2.34 7.72,1.68 15.05,2 16.86,0.74 68.91,6.67 79.38,-1.09 4.66,-3.45 6.86,-4.59 12.34,-7.23l10.98 -5.25c2.19,-1.44 2,-1.44 2.71,-2.28 -8.92,-7.78 -9,-5.57 -20.78,-9.5 -24.29,-8.09 -20.07,7.44 -54.76,-3.63 -13.78,-4.39 -15.06,-8.86 -23.65,-8.94 -6.67,17.97 -3.84,24.3 -21.27,35.92zm-491.5 -36.85c-1.48,29.86 -5.76,40.3 22.45,65.05 8.85,7.77 6.33,7.08 20.06,10.9 11.22,3.12 14.48,-0.83 19.83,-6.82 13.13,-14.73 3.54,-33.42 -6.22,-40.31 -6.01,-4.25 -12.83,-8.27 -18.64,-12.71 3.6,16.81 -19.94,20.55 -35.03,21.01 7.87,-9.98 -6.89,-20.59 8.02,-25.86 3.45,2.63 7.52,10.85 10.32,14.1 9.95,-3.13 7.48,-4.33 10.98,-11.33 -3.4,-6.66 -7.42,-7.78 -13.58,-18.89l0 0c-0.28,0.32 -1.53,1.9 -1.92,2.29 -6.22,6.02 -9.37,4.21 -16.27,2.57zm568.07 -77.22c3.6,-10.18 -3.91,-16.19 -0.32,-26.3 3.26,-9.18 15.99,-8.04 26.87,-9.01 -1.44,15.07 -7.96,8.25 -1.71,31.2 20.1,9.14 16.82,-9.35 38.23,-12.21 9.35,-1.25 15.33,1.87 19.23,7.28 8.05,11.15 5.26,7.48 16.46,12.74l1.46 -3.84c1.4,-4.71 2.32,-22.76 23.86,-13.68 5.52,2.33 9.34,5.22 11.98,11.86 2.63,6.62 2.44,14.44 4.02,18.33l1.31 2.16c0.13,0.22 0.45,0.69 0.77,0.94 2.41,-3.59 1.49,1.82 1.33,-6.55 -0.19,-10.61 -8.33,-55.87 -10.68,-63.13 -20.09,8.41 -6.01,28.53 -38.92,31.93l0.71 16.8c-11.88,-14.04 -12,-30.35 -30.04,-33.83 -10.11,-1.95 -18.57,3.21 -23.52,8.1 -6.44,6.35 -2.56,8.85 -4.37,17.32l-2.92 7.24c-6.52,-21.41 0.94,-34.98 22.53,-39.76l-5.44 -11.35c-45.3,18.38 -77.22,3.08 -57.67,43.77l6.83 9.99zm-483.35 59.45c10.96,16.74 12.56,4.71 36.91,7.26 21.47,2.26 13.72,15.62 14.57,29.98 7.8,0.92 7.77,1.13 11.62,-4.37 13.03,-18.58 0.7,-33.92 -0.59,-45.96 9,2.35 12.75,13.94 14.69,24.47 13.63,73.8 3.5,-7.83 31.73,-0.58 15.24,6.16 3.46,21.34 20.16,17.32 -1.83,-18.97 -15.82,-40.05 -22.62,-55.81l-106.47 27.69zm306.73 9.87c8.49,14.16 23.95,24.28 47.32,16.67 20.34,-6.62 30.35,-21.65 58.49,-18.01 7.6,0.98 5.97,2.65 12.31,1.27 19.46,-4.23 8.26,2.95 37.73,10.98 26.69,7.27 37.14,-5.05 56.68,-14.28 -7.34,-4.25 -38.69,-8.91 -46.62,-9.8 -21,-2.35 -35.34,1.65 -55.78,2.29 -33.68,1.05 -78.8,-3.75 -110.13,10.88zm-9.55 63.59c2.14,0.88 -0.36,0.55 4.13,0.84 18.96,1.21 25.33,-4.16 76.65,2.14 72.51,8.9 181.78,13.43 238.78,-32.38 -22.1,5.67 -38.15,13.45 -63.78,17.57 -12.09,1.94 -68.23,13.37 -113.82,9.13 -81.34,-7.57 -134.79,-6.26 -141.96,2.7zm-657.93 -1754.67l204.65 204.35 -38.29 27.24 -166.36 -165.17 -886.99 886.98 175.8 176.25c-20.57,1.99 -40.3,4.81 -58.44,8.12l-183.77 -184.37 953.4 -953.4zm633.09 633.09l320.31 320.31 -953.4 953.4 -86.85 -86.85c13.38,-9.19 22.19,-23.07 28.31,-38.1l58.54 58.54 886.98 -886.99 -334.45 -334.15c19.34,9.87 48.53,14.23 80.56,13.84zm-249.43 -422.9c-0.74,-1.77 -1.22,-1.79 -3.55,-4.1 -3.3,-3.28 -4.91,-5.39 -5.96,-7.2 -1.2,-2.05 -1.71,-3.73 -3.51,-6 -8.05,-10.14 -14.76,-21.38 -20.11,-33.17 -5.26,-11.64 -9.23,-23.78 -13.29,-35.89 -3.43,-10.29 -6.81,-20.61 -9.16,-31.22 -3.98,-18 -2.4,-36.92 -6.46,-54.81 -0.75,-3.3 -1.7,-6.48 -2.91,-9.47 -0.21,-1.73 -0.5,-3.45 -0.84,-5.14 -0.48,-2.43 0.95,-2.07 2.41,-0.96 5.03,6.89 8.32,16.35 10.95,24.5 5.77,17.8 14.11,34.16 22.74,50.71 9.35,17.9 18.57,35.56 24.56,54.94 2.33,7.52 4.06,15.11 5.44,22.87 0.46,2.61 0.74,4.63 1.11,6.75 0.46,2.67 0.99,5.71 2.6,11.06 1.21,4.02 -1.27,7.9 -0.17,10.76 5.1,13.25 10.18,26.48 14.8,39.95 6.83,19.91 8.7,25.95 14.65,48.02 6.82,26.68 13.09,53.38 19.09,80.38 0.69,3.25 1.36,6.5 2,9.76 -0.23,-2.61 -0.45,-5.2 -0.67,-7.78 -0.61,-5.76 -0.87,-11.1 -1.26,-16.59 -0.34,-5.43 -0.78,-11 -0.89,-16.11 -0.34,-10.18 -0.74,-20.23 -0.5,-30.42 0.3,-12.65 1.37,-23.99 3.67,-32.96 0.53,-2.11 1.42,-3.96 2.42,-5.36 1.26,-1.8 2.67,-3.19 3.81,-5.15 0.63,-0.94 1.09,-2.1 1.74,-2.99 5.22,-15.45 19.26,-24.14 34.21,-29.33 9.27,-3.22 18.97,-5.27 28.56,-7.33 15.61,-3.34 31.7,-6.4 46.99,-10.93 2.65,0.16 3.09,1.68 5.16,2.56 1.24,0.54 4.94,0.11 5.84,0.64 -1.72,1.51 -4.17,2.98 -6.11,4.23 -12.42,7.95 -25.03,13.1 -38.68,18 6.17,-0.56 12.33,-1.2 18.54,-1.66 1.98,-0.1 3.37,-0.25 5.38,0.06 0.9,0.6 2.02,1.77 1.4,2.93 -2.13,0.72 -4.17,1.57 -6.1,2.54 -2.02,1 -3.91,2.21 -5.96,3.15 -1.5,0.69 -3.1,1.25 -4.66,1.87 -1.33,0.53 -2.66,1.15 -3.98,1.81 9.34,-0.29 18.67,-0.57 28.01,-0.88 6.01,-0.2 15.28,-6.11 19.85,-10.16 0.19,0.04 0.38,0.07 0.57,0.09 2.52,0.26 5.22,-2.65 6.73,0.47 -7.02,13.01 -20.4,19.74 -33.72,24.6 -4.04,1.47 -7.68,2.68 -10.4,3.88 -23.66,10.4 -46.92,13.72 -72.75,11.8 -4.01,-0.31 -8.84,-1.58 -12.75,-3.54 -0.31,0.03 -0.63,0.04 -0.95,0.05 -0.82,0.14 -1.23,0.23 -2.01,0.51 -1.49,0.75 -3.24,0.55 -4.93,1.55 -1.54,0.66 -2.94,5.72 -3.7,9.08 -1.85,7.94 -2.51,18.55 -2.68,30.16 -0.15,9.91 0.18,19.75 0.41,29.66 0.34,7.26 0.79,14.53 1.2,21.79 0.3,3.46 0.6,6.91 0.91,10.36 0.97,12.5 2.24,24.97 3.63,37.42 1.57,11.03 2.93,22.11 4.2,33.24l0.05 0.34c2.56,-26.55 5.06,-53.11 7.54,-79.67 0.24,-3.99 0.74,-7.55 1.13,-11.15 0.43,-3.57 0.77,-7.17 1.44,-10.36 0.6,-3.27 1.24,-6.5 1.97,-9.77 0.81,-3.15 1.24,-6.42 2.21,-10.39 2.57,-10.52 7.95,-23.81 15.13,-32.6 3.54,-4.39 8.4,-7.1 14,-7.54 0.26,-0.01 0.51,0 0.75,0.01l-0.01 0 0.07 0.01c0.33,0.02 0.63,0.07 0.92,0.14 14.93,2.46 26.15,15.13 33.98,27.26 4.9,7.61 9.04,15.71 13.16,23.76 8.99,17.52 15.55,27.46 20.47,45.47 0.46,0.27 0.32,0.17 0.49,0.67 0.61,1.88 3.88,3.51 2,5.36 -12.62,-2.68 -22.57,-11.77 -30.95,-21.03 -2.56,-2.85 -4.78,-5.42 -6.67,-7.29 -15.94,-15.83 -26.94,-33.15 -34.76,-54.31 -1.41,-3.91 -2.26,-9.29 -1.44,-13.38l0.15 -0.19c-0.18,-0.06 -0.33,-0.09 -0.45,-0.08 -2.16,0.27 -3.91,0.61 -5.89,1.68 -2.02,0.98 -5.89,5.84 -8.06,9.44 -5.21,8.53 -8.75,20.37 -10.7,29.88 -0.79,3.83 -1.38,6.91 -2.06,10.02 -0.72,3.04 -1.38,6.11 -2.01,9.25 -0.75,4.72 -1.31,9.48 -1.96,14.22 -0.22,2.61 -0.46,5.23 -0.7,7.84 -1.05,10.14 -2.49,27.45 -4.62,46.81 -0.96,10.06 -2.04,20.56 -3.06,29.75 -0.28,2.55 -0.54,5.11 -0.81,7.67 3.43,35.98 3.62,72.26 2.5,108.53 3.22,-12.21 6.87,-24.3 10.96,-36.25 1.12,-3.65 2.43,-6.96 3.67,-10.4 1.27,-3.39 2.48,-6.88 3.87,-10.01 5.45,-12.9 11.53,-27.59 21.37,-37.64 1.1,-1.15 2.45,-2.04 3.78,-2.63 1.69,-0.76 3.35,-1.22 5.01,-2.13 2.04,-0.97 3.12,-2.3 5.47,-1.44 0.95,0.29 1.85,0.78 2.71,1.39 18.45,2.73 33.79,15.57 45.57,29.33 6.78,7.92 12.78,16.48 18.78,24.99 9.72,13.82 19.31,28.01 29.84,41.19 1.04,2.62 -0.86,3.68 -0.15,5.58 0.28,0.7 1.72,3.87 1.62,4.41 -0.47,-0.32 -0.93,-0.65 -1.38,-1.01 -11.63,-9.13 -22.09,-19.2 -31.91,-30.26 -2.16,-2.43 -4.33,-4.87 -6.47,-7.33 3.09,5.48 6.25,10.93 9.26,16.45 0.89,1.65 1.64,2.98 2.17,4.8 -0.26,1.14 -1.07,1.82 -2.22,1.42 -1.56,-1.85 -3.22,-3.62 -4.94,-5.28 -1.81,-1.73 -3.72,-3.34 -5.48,-5.12 -1.35,-1.37 -2.65,-2.86 -3.94,-4.29 -0.98,-1.07 -2.07,-2.15 -3.26,-3.28 4.17,8.33 8.36,16.66 12.52,24.98 2.8,5.62 12.45,13.44 17.9,17.07 0.09,0.38 0.23,0.76 0.4,1.1 0.77,1.48 4.28,4 2.08,5.44 -15.17,-5.42 -27.02,-16.69 -37.43,-28.56 -3.08,-3.51 -5.73,-6.67 -8,-9.03 -18.28,-18.98 -31.83,-39.29 -41.29,-64.06 -1.04,-2.72 -1.85,-6.36 -1.92,-9.72 -1.29,-0.11 -2.58,-0.45 -4.01,-0.32 -1.6,0 -4.36,2.71 -6.04,4.54 -4.01,4.34 -7.71,10.61 -11.24,17.61 -3.01,5.94 -5.58,12.01 -8.26,18.1 -1.8,4.49 -3.5,9.03 -5.24,13.55 -0.73,2.17 -1.46,4.35 -2.18,6.52 -3.9,11.14 -7.24,22.46 -10.48,33.79 -0.5,1.8 -0.97,3.59 -1.43,5.39 -0.55,15.22 -1.31,30.44 -2.13,45.62 -1.27,23.33 -2.77,46.83 -5.31,70.03 -2.48,24.03 -4.93,48.09 -7.04,72.16 -0.33,3.72 -0.86,7.88 -1.5,12.24 0.14,5.11 -0.07,10.81 -0.66,17.1 -1.45,17.44 -6.17,35.8 -14.17,55.06 -8,19.27 -16.9,37.62 -26.72,55.07 9.82,17.08 20.81,34.35 32.99,51.79 12.18,17.45 21.54,35.08 28.08,52.89 15.26,-8.36 29.53,-17.18 42.8,-26.44 13.26,-9.27 23.71,-19.72 31.34,-31.35 2.91,-4.36 5.37,-6.27 7.37,-5.73 1.99,0.55 3.54,2.18 4.63,4.91 1.09,2.73 1.63,5.82 1.63,9.27 0,3.45 -0.36,5.72 -1.09,6.81 -6.9,11.27 -17.81,21.81 -32.71,31.63 -14.9,9.81 -31.07,19.44 -48.52,28.89 2.18,7.63 2.91,16.18 2.18,25.62 -1.09,10.91 -4.91,22.27 -11.45,34.08 -6.54,11.81 -14.81,22.63 -24.8,32.44 -10,9.81 -21.27,17.9 -33.81,24.26 -12.54,6.36 -25.35,9.54 -38.44,9.54 -4.36,0 -8.63,-1.36 -12.81,-4.09 -4.18,-2.72 -7.9,-6.17 -11.17,-10.35 -3.27,-4.19 -5.91,-8.82 -7.91,-13.91 -2,-5.09 -2.82,-9.99 -2.45,-14.72 0.36,-6.54 2.54,-12.81 6.54,-18.81 4,-5.99 9.18,-11.72 15.54,-17.17 6.36,-5.45 13.72,-10.72 22.08,-15.81 8.36,-5.09 17.26,-10.18 26.72,-15.27 -1.1,-15.63 -4.64,-29.98 -10.64,-43.07 -5.99,-13.08 -13.17,-25.8 -21.53,-38.16 -1.82,2.18 -3.46,4.27 -4.91,6.27 -0.38,0.52 -0.75,1.03 -1.1,1.54 -0.16,0.57 -0.34,1.06 -0.53,1.46 -3.64,5.81 -8.82,13.72 -15.54,23.71 -6.73,10 -14.54,20.99 -23.45,32.99 -8.9,11.99 -18.35,24.26 -28.35,36.8 -9.99,12.54 -20.17,23.99 -30.53,34.35 -10.36,10.35 -20.44,19.08 -30.26,26.16 -9.81,7.09 -18.9,11 -27.26,11.73 -0.73,0 -1.36,0.09 -1.91,0.27 -0.54,0.18 -1.18,0.27 -1.9,0.27 -2.91,0 -8,-0.54 -15.27,-1.63 -7.27,-1.09 -14.72,-3.28 -22.35,-6.55 -7.64,-3.27 -14.18,-7.81 -19.63,-13.63 -5.45,-5.81 -7.82,-13.63 -7.09,-23.44 0.73,-6.54 4,-18.08 9.81,-34.62 3.09,-8.77 6.56,-18.39 10.41,-28.85 -8.48,11.9 -17.76,24.15 -27.85,36.76 -10.18,12.72 -20.35,24.35 -30.53,34.89 -10.18,10.54 -20.27,19.53 -30.26,26.98 -10,7.46 -19.17,11.91 -27.53,13.36 -3.28,1.09 -8.27,0.73 -15,-1.09 -6.72,-1.82 -13.54,-5 -20.44,-9.54 -6.91,-4.54 -12.72,-10.27 -17.45,-17.17 -4.72,-6.91 -6.72,-14.91 -5.99,-23.99 0,-2.91 0.54,-6.45 1.63,-10.63 1.09,-4.18 2.54,-8.82 4.36,-13.91 -7.26,9.09 -14.9,18 -22.9,26.72 -7.99,8.72 -16.26,16.54 -24.8,23.44 -8.54,6.91 -17.17,12.45 -25.9,16.63 -8.72,4.18 -17.27,6.27 -25.62,6.27 -4.36,0 -9.91,-1.36 -16.63,-4.09 -6.73,-2.72 -13.09,-6.72 -19.08,-11.99 -6,-5.27 -11,-11.72 -15,-19.36 -4,-7.63 -5.63,-16.35 -4.9,-26.16 0.72,-6.55 3,-15 6.81,-25.36 3.82,-10.36 8.54,-21.9 14.17,-34.62 5.64,-12.72 11.55,-25.89 17.72,-39.52 6.18,-13.64 12.09,-26.81 17.72,-39.53 5.64,-12.72 10.36,-24.63 14.18,-35.71 3.81,-11.09 6.09,-20.27 6.81,-27.54 0.73,-6.54 4.36,-9.63 10.91,-9.26 6.54,0.36 13.45,2.72 20.71,7.08 7.28,4.36 13.82,9.73 19.63,16.09 5.82,6.36 8.55,12.26 8.18,17.72 -0.36,3.63 -2.82,11.08 -7.36,22.35 -4.54,11.27 -9.99,24.35 -16.35,39.25 -6.37,14.91 -13.09,30.44 -20.18,46.62 -7.09,16.17 -13.35,30.98 -18.81,44.43 -5.45,13.45 -9.36,24.63 -11.72,33.53 -2.36,8.91 -2.09,13.36 0.82,13.36 7.63,0 17.17,-4.45 28.62,-13.36 11.45,-8.9 23.45,-20.26 35.99,-34.07 12.53,-13.81 24.89,-29.35 37.07,-46.62 12.18,-17.26 22.99,-34.07 32.44,-50.43 8.36,-19.63 15.72,-37.71 22.08,-54.25 6.36,-16.53 9.9,-29.53 10.63,-38.98 0.36,-6.54 3.82,-9.63 10.36,-9.27 6.54,0.37 13.45,2.73 20.72,7.09 7.26,4.36 13.81,9.72 19.62,16.08 5.82,6.37 8.54,12.27 8.18,17.72 -0.36,3.27 -1.9,9.09 -4.63,17.45 -2.73,8.36 -6.18,18.45 -10.36,30.26 -4.18,11.81 -8.91,24.62 -14.18,38.44 -5.27,13.81 -10.44,27.53 -15.53,41.16 -5.09,13.63 -10,26.62 -14.72,38.98 -4.73,12.36 -8.55,22.9 -11.46,31.62 -1.81,8 -0.54,12 3.82,12 4,0 9.09,-2.64 15.27,-7.91 6.18,-5.27 13.08,-12.36 20.72,-21.26 7.63,-8.91 15.72,-18.9 24.26,-29.99 8.54,-11.08 16.99,-22.44 25.35,-34.07 8.36,-11.63 16.36,-22.99 23.99,-34.08 7.63,-11.08 14.54,-20.99 20.72,-29.71 0.48,-0.72 0.94,-1.37 1.39,-1.94 3.01,-8.04 6.09,-16.3 9.24,-24.78 9.99,-26.89 19.35,-54.15 28.07,-81.78 -9.08,1.09 -17.44,2 -25.08,2.73 -7.63,0.73 -13.99,1.09 -19.08,1.09 -10.54,0 -19.17,-3.27 -25.89,-9.81 -6.73,-6.55 -11.64,-13.63 -14.73,-21.27 -3.08,-7.63 -4.54,-14.72 -4.36,-21.26 0.19,-6.54 2.09,-9.81 5.73,-9.81 1.45,0 3.45,0.81 5.99,2.45 2.55,1.63 6.1,3.54 10.64,5.73 4.54,2.18 10.36,4.08 17.44,5.72 7.09,1.63 15.9,2.45 26.45,2.45 6.9,0 13.26,-0.09 19.08,-0.27 5.81,-0.18 11.45,-0.27 16.9,-0.27 5.09,-18.54 9.36,-36.35 12.81,-53.43 3.45,-17.09 5.91,-33.26 7.36,-48.52 0.36,-4.37 2.55,-6.91 6.55,-7.64 3.99,-0.73 8.9,-0.18 14.72,1.64 5.81,1.81 11.99,4.63 18.53,8.45 6.54,3.81 12.63,7.99 18.27,12.54 5.63,4.54 10.17,9.17 13.62,13.9 3.46,4.72 5,8.9 4.64,12.54 -0.37,2.54 -1.91,8.54 -4.64,17.99 -2.72,9.45 -6.63,21.08 -11.72,34.9 7.51,-0.91 14.9,-1.68 22.16,-2.34 6.16,-8.13 12.95,-15.44 20.37,-21.93 10.18,-8.9 20.63,-15.81 31.35,-20.71 10.72,-4.91 19.72,-7.37 26.99,-7.37 7.99,0 14.62,4.09 19.89,12.27 0.8,1.23 1.51,2.59 2.14,4.07 1.16,-11.45 2.44,-22.88 3.67,-34.32 -0.01,-3.62 0,-7.23 -0.03,-10.83 -0.1,-9.81 -0.09,-20.95 0.02,-31.56 -0.18,-20.64 0.27,-38.75 0.26,-49.52 0.04,-2.81 0.1,-5.6 0.03,-8.41 -0.51,-6.21 -1.42,-12.48 -2.75,-18.57 -1.15,-4.57 -2.48,-9.21 -3.99,-13.84 -1.46,-4.68 -2.91,-9.28 -4.92,-14.82 -4.98,-13.76 -13.51,-29.43 -21.06,-32.74 -3.16,-1.41 -7.98,-0.18 -9.56,1.75 -1.74,1.99 -2.84,4.36 -3.88,6.76 -0.44,1.07 -0.49,2.44 -0.42,3.74 0.08,0.65 0.14,1.28 0.19,1.9l0 0.01 0 0.01 0.02 0.15 -0.01 0.03c0.21,2.84 0.24,5.57 0.82,8.44 3.6,17.92 4.12,31.14 -1.17,49.16 -5.71,19.46 -15.42,36.69 -17.5,57.23 -0.57,5.79 -1.6,12.85 -4.9,17.71 -0.67,0.44 -2.01,1.1 -2.55,0.08 -0.2,-0.36 -0.52,-3.71 -0.66,-4.48 1.18,-5.45 0.26,-11.55 -0.9,-16.93 -1.48,-6.84 -3.75,-14.03 -5.11,-20.93 -2.09,-10.58 -1.05,-20.46 0.18,-31.1 0.84,-7.27 1.63,-14.59 3.26,-21.73 2.87,-12.46 8.51,-23.53 17.18,-32.96 1.98,-2.15 3.49,-3.66 4.63,-5.59 0.34,-1.54 1.03,-3.07 1.77,-4.75 2.24,-4.76 6.27,-12.01 11.61,-13.39 9.36,-2.5 20.97,13 27.99,28.58 2.64,5.88 4.27,10.83 6.22,15.84 1.88,5.13 3.52,10.21 4.94,15.21 1.49,4.94 2.41,10.05 3.17,14.84 0.71,4.82 1.31,9.37 1.15,13.58 -0.24,21.06 -0.46,42.12 -0.66,63.17 1.83,-20.89 3.22,-41.84 4.68,-62.77 0.75,-11.52 1.43,-22.99 1.99,-34.43 -0.8,-2.97 -1.62,-5.9 -2.56,-8.85 -1.3,-3.97 -2.6,-7.94 -3.89,-11.89 -2.9,-7.69 -5.6,-15.46 -8.74,-22.87 -0.89,-2.25 -1.78,-4.49 -2.69,-6.73 -2.2,-4.69 -4.39,-9.41 -6.7,-14.04 -3.55,-6.42 -6.93,-12.75 -10.92,-18.92 -4.76,-7.34 -9.88,-13.98 -15.71,-18.73 -2.43,-2.01 -6.46,-5 -9,-5.18 -2.71,-0.34 -5.3,0.05 -7.92,-0.2 -0.9,-0.03 -1.72,-0.04 -2.6,-0.02 -3.42,5.46 -7.45,8.88 -11.3,12.11 -3.65,3.06 -7.97,4.81 -13.05,6.05 -10.38,2.51 -21.59,3.03 -32.4,1.78 -12.52,-1.44 -25.31,-3.3 -37.95,-5.15 -10.6,-1.58 -21.2,-3.19 -31.78,-4.83 -3.08,-1.13 -2.13,-2.1 -3.42,-3.53 -1.47,-1.63 -4.59,-3.19 -5.21,-3.68 -0.84,-0.69 -1.16,-1.99 -2.58,-2.14 -3.14,-0.33 -7.46,0.38 -8.33,-3.49 10.46,-0.63 21.1,-3.02 31.43,-5.63 8.99,-2.42 17.93,-5.05 26.82,-8.03 7.9,-2.65 15.09,-5.35 23.46,-6.35 9.24,-1.1 19.03,-0.96 28.43,-0.09 12.17,1.07 26.54,4.11 35.95,12.37 1.59,0.36 2.91,1.19 5,1.98 4.49,1.96 9.35,2.56 13.31,5.69 10.11,7.8 17.75,18.75 24.05,29.76 1.77,3.34 3.53,6.67 5.3,10.01 1.83,3.26 3.34,6.87 4.94,10.38 1.57,3.55 3.26,6.99 4.59,10.75 1.99,4.82 3.89,9.72 5.7,14.7 -1.96,-7.64 -3.98,-15.81 -5.88,-23.7 -5.14,-19.78 -9.08,-37.31 -11.68,-47.65 -0.63,-2.65 -1.24,-5.31 -1.86,-7.96 -1.41,-4.88 -2.77,-9.82 -4.33,-14.65 -1.25,-3.3 -2.52,-6.53 -3.89,-9.77 -1.31,-3.28 -2.48,-6.51 -4.02,-10.54 -3.82,-10 -10.17,-22.8 -18.54,-32.89 -3.5,-4.23 -9.56,-10.26 -12.54,-11.87 -2.85,-1.63 -5.54,-2.6 -8.61,-3.54 -1.25,-0.35 -4.03,0.69 -5.52,0.66 -0.66,3.98 -3.15,8.53 -5.65,11.52 -15.29,18.25 -32.59,31.31 -54.03,41.34 -2.6,1.22 -5.76,3.01 -9.38,4.94 -12.13,6.47 -25.42,11.93 -39.47,10.64 -1.33,-2.22 2.21,-2.92 3.42,-4.09 0.27,-0.25 0.49,-0.53 0.69,-0.83l0.44 -0.09c0.42,-0.6 0.76,-1.16 0.85,-1.54 0.43,-1.86 -0.55,-2.6 0.78,-4.6 11.9,-9.76 23.17,-20.65 34.45,-31.15 6.94,-6.46 13.92,-12.96 21.48,-18.71 12.88,-9.78 28.87,-18.12 45.54,-15.55 1.41,0.09 2.88,0.53 4.47,1 7.08,2.38 13.45,6.05 18.79,11.32 11.22,10.96 20.35,25.78 25.17,36.98 1.81,4.23 2.79,7.59 4.29,10.96 1.39,3.45 2.66,6.84 3.88,10.26 1.3,3.37 2.17,7.02 3.17,10.67 0.94,3.68 2.05,7.36 2.83,11.37 7.79,32.71 15.6,65.42 23.56,98.09 1.54,-37.78 1.65,-75.3 -1.13,-113.3 -2.28,-24.78 -5.77,-49.07 -9.99,-73.29l-3.85 -11.78c-2.9,-7.68 -5.6,-15.46 -8.74,-22.86 -0.89,-2.25 -1.79,-4.49 -2.69,-6.74 -2.21,-4.68 -4.39,-9.4 -6.7,-14.04 -3.55,-6.41 -6.93,-12.75 -10.93,-18.91 -4.75,-7.35 -9.87,-13.99 -15.7,-18.74 -2.43,-2.01 -6.46,-5 -9,-5.18 -2.71,-0.34 -5.3,0.05 -7.92,-0.19 -0.8,-0.04 -1.54,-0.04 -2.31,-0.03 -1.31,4.76 -4.73,10.06 -8.09,13.37 -20.28,20.11 -42.29,33.43 -69.34,42.11 -3.23,1.03 -7.21,2.69 -11.75,4.44 -15.42,5.94 -31.76,10.17 -48.18,5.77 -1.29,-3.11 2.87,-3.22 4.59,-4.55 0.34,-0.27 0.64,-0.59 0.91,-0.93 6.84,-0.27 19.53,-2.36 24.73,-6.51 7.88,-6.25 15.73,-12.54 23.6,-18.82 -1.57,0.41 -3.03,0.84 -4.4,1.32 -1.91,0.66 -3.77,1.43 -5.71,2.02 -2.47,0.75 -5.02,1.2 -7.51,1.88 -2.4,0.64 -4.77,1.45 -7.12,2.42 -1.37,-0.38 -1.58,-1.86 -1.31,-3.09 1.36,-1.6 2.69,-2.55 4.35,-3.78 5.47,-3.99 11.06,-7.83 16.6,-11.73 -3.17,1.23 -6.35,2.43 -9.53,3.63 -14.44,5.43 -28.73,9.28 -44.01,11.41 -0.58,0.08 -1.17,0.13 -1.76,0.16 0.28,-0.98 3.69,-3.3 4.24,-4.53 0.97,-2.12 0.01,-3.41 2.07,-5.42 16.17,-7.33 31.94,-16.34 47.56,-24.83 13.63,-7.4 27.74,-15.15 42.83,-19.06 14.48,-3.74 29.88,-3.6 43.26,3.76l-0.39 0.08c0.68,0 1.36,0.03 2.05,0.09 2.78,-0.11 4.16,1.06 7.09,2.17 4.5,1.97 9.33,2.55 13.31,5.69 10.12,7.81 17.74,18.75 24.05,29.76 1.77,3.33 3.53,6.67 5.3,10 1.83,3.27 3.34,6.88 4.95,10.39 1.56,3.55 3.25,6.98 4.58,10.74 2.27,5.51 4.41,11.07 6.42,16.68 -2.18,-10.47 -4.44,-20.91 -6.79,-31.32l-0.04 0.17c-1.15,-4.22 -2.26,-8.33 -3.6,-12.49 -1.34,-4.05 -2.68,-8.11 -4.02,-12.15 -3,-7.84 -5.79,-15.79 -9.02,-23.36 -0.93,-2.3 -1.85,-4.59 -2.79,-6.88 -2.28,-4.79 -4.52,-9.62 -6.9,-14.36 -3.67,-6.55 -7.16,-13.03 -11.27,-19.33 -4.91,-7.52 -10.17,-14.31 -16.16,-19.18 -2.51,-2.06 -6.65,-5.13 -9.25,-5.32 -2.78,-0.36 -5.44,0.03 -8.13,-0.23 -0.64,-0.03 -1.23,-0.04 -1.84,-0.04 -1.52,3.13 -4.15,6.33 -6.51,9.07 -8.11,9.45 -19.54,13.74 -30.69,18.38 -5.52,2.3 -10.56,5.21 -16.27,6.55 -25.32,5.96 -50.65,12.02 -76.07,17.51 -2.3,0.5 -4.63,0.69 -6.93,1.16 -1.88,0.08 -3.29,-1.05 -5.2,-1.58 -0.78,-0.21 -3.39,-1.15 -4.09,-1.6 -1.74,-1.08 -2.62,-1.36 -4.56,-1.09 -4.09,0.58 -7.64,1.44 -11.25,-0.81 9.81,-4.19 18.56,-10.02 27.46,-15.81 20.52,-13.36 47.33,-30.42 70.93,-37.37 13.85,-4.11 36.76,-12.13 51.53,-9.65 3.42,0.57 6.84,2.54 9.94,4.26 2.1,0.23 3.53,1.23 6.06,2.21 4.63,2.02 9.57,2.63 13.67,5.85 10.38,7.98 18.26,19.19 24.76,30.46 1.82,3.41 3.64,6.82 5.47,10.23 1.89,3.34 3.45,7.03 5.1,10.61 1.61,3.63 3.36,7.14 4.74,10.98 1.77,4.28 3.49,8.61 5.14,13.01l-0.04 -0.13c-5.12,-19.96 -9.49,-34.79 -14.53,-48.24 -3.71,-9.92 -6.69,-16.89 -10.12,-25.13 -1.54,-3.71 -3.01,-7.41 -4.23,-11.24 -0.01,-0.01 -1.69,-4 -2.04,-4.84zm-9.26 631.92c-0.72,7.99 -0.18,15.9 1.64,23.71 1.81,7.82 4.54,15.72 8.18,23.72 8.36,-15.27 15.81,-30.81 22.35,-46.62 6.54,-15.81 10.36,-30.62 11.45,-44.43 1.09,-11.63 0.73,-19.44 -1.09,-23.44 -1.82,-4 -4.73,-6 -8.73,-6 -3.27,0 -6.72,2.54 -10.35,7.63 -3.64,5.09 -7.09,11.36 -10.36,18.81 -3.27,7.45 -6.09,15.36 -8.45,23.72 -2.37,8.36 -3.91,15.99 -4.64,22.9zm-19.63 284.05c5.1,0 9.64,-1.91 13.64,-5.73 3.99,-3.81 7.54,-8.54 10.63,-14.18 3.09,-5.63 5.54,-11.72 7.36,-18.26 1.81,-6.54 3.09,-12.36 3.81,-17.44 -11.63,7.26 -21.26,14.62 -28.89,22.08 -7.63,7.45 -11.82,15.35 -12.54,23.71 -0.37,2.55 0.09,4.82 1.36,6.82 1.27,2 2.82,3 4.63,3zm-10.24 -173.67c0.69,-0.96 1.38,-1.95 2.07,-2.98 -10.18,-15.26 -18.99,-31.26 -26.45,-47.98 -7.45,-16.72 -10.26,-35.8 -8.45,-57.24 0.31,-3.93 0.87,-7.77 1.68,-11.52 -5.44,0.87 -11.09,1.8 -16.94,2.79 -7.64,21.45 -15.9,44.71 -24.81,69.79 -8.9,25.08 -17.54,49.7 -25.89,73.87 -8.37,24.17 -16.18,46.62 -23.45,67.33 -7.27,20.73 -13.08,37.44 -17.45,50.16 -2.9,10.18 -1.81,15.27 3.28,15.27 3.63,0 8.72,-2.63 15.26,-7.9 6.54,-5.28 13.72,-12.27 21.54,-21 7.81,-8.72 16.17,-18.62 25.08,-29.71 8.9,-11.09 17.62,-22.35 26.16,-33.8 8.55,-11.45 16.73,-22.72 24.54,-33.8 7.82,-11.09 14.81,-20.99 20.99,-29.72 1.02,-1.52 1.96,-2.71 2.84,-3.56z"/>
 </g>
</svg>
